<svg xmlns="http://www.w3.org/2000/svg" viewBox="0 0 58 58"><style>.a{fill:#FFF;}</style><path d="M53 3.2H5c-2.7 0-5 2.3-5 5v33c0 2.7 2.3 5 5 5h13.6l-3.3-3.3c-0.4-0.4-0.4-1 0-1.4 0.4-0.4 1-0.4 1.4 0l4 4c0 0 0 0 0 0 0 0 0 0 0 0L29 54.8l8.3-9.2c0 0 0.1 0 0.1-0.1l4-4c0.4-0.4 1-0.4 1.4 0 0.4 0.4 0.4 1 0 1.4l-3.3 3.3H53c2.7 0 5-2.3 5-5v-33C58 5.5 55.7 3.2 53 3.2z" fill="#26d5ba"/><circle cx="15" cy="24.8" r="3" class="a"/><circle cx="29" cy="24.8" r="3" class="a"/><circle cx="43" cy="24.8" r="3" class="a"/></svg>