<?xml version="1.0" standalone="no"?>
<!DOCTYPE svg PUBLIC "-//W3C//DTD SVG 20010904//EN"
 "http://www.w3.org/TR/2001/REC-SVG-20010904/DTD/svg10.dtd">
<svg version="1.0" xmlns="http://www.w3.org/2000/svg"
 width="3508.000000pt" height="2480.000000pt" viewBox="0 0 3508.000000 2480.000000"
 preserveAspectRatio="xMidYMid meet">
<metadata>
Created by potrace 1.14, written by Peter Selinger 2001-2017
</metadata>
<g transform="translate(0.000000,2480.000000) scale(0.100000,-0.100000)"
fill="#000000" stroke="none">
<path d="M17232 15999 c-885 -78 -1683 -454 -2298 -1081 -284 -289 -486 -573
-663 -928 -193 -389 -297 -733 -358 -1180 -26 -193 -26 -697 0 -890 36 -263
78 -452 153 -683 280 -857 872 -1584 1659 -2037 805 -464 1789 -598 2700 -369
1326 334 2361 1394 2663 2729 143 627 113 1310 -84 1921 -192 597 -567 1177
-1024 1585 -583 521 -1247 823 -2020 920 -141 18 -587 26 -728 13z m623 -140
c66 -6 184 -21 263 -35 1426 -240 2573 -1354 2856 -2774 52 -258 60 -355 61
-680 0 -198 -5 -338 -13 -400 -74 -537 -221 -968 -476 -1397 -246 -415 -605
-800 -1002 -1078 -471 -330 -969 -524 -1569 -612 -173 -25 -707 -25 -885 0
-995 141 -1838 648 -2418 1454 -217 303 -420 725 -518 1080 -91 333 -128 603
-128 948 0 473 82 896 257 1321 446 1088 1408 1886 2554 2118 332 68 659 85
1018 55z"/>
</g>
</svg>
