<?xml version="1.0" encoding="utf-8"?>
<!-- Generator: Adobe Illustrator 15.0.0, SVG Export Plug-In . SVG Version: 6.00 Build 0)  -->
<!DOCTYPE svg PUBLIC "-//W3C//DTD SVG 1.1//EN" "http://www.w3.org/Graphics/SVG/1.1/DTD/svg11.dtd">
<svg version="1.1" id="Layer_1" xmlns="http://www.w3.org/2000/svg" xmlns:xlink="http://www.w3.org/1999/xlink" x="0px" y="0px"
	 width="208px" height="103px" viewBox="0 0 164.788 81.859" enable-background="new 0 0 164.788 81.859"
	 xml:space="preserve">
<g>
	<defs>
		<rect id="SVGID_1_" y="0" width="164.788" height="81.859"/>
	</defs>
	<clipPath id="SVGID_2_">
		<use xlink:href="#SVGID_1_"  overflow="visible"/>
	</clipPath>
	<path clip-path="url(#SVGID_2_)" fill="#404040" d="M13.953,42.573c0,0.927,0.139,1.483,0.556,1.646
		c0.069,0.068,0.069,0.208-0.023,0.277c-0.278,0-0.696,0.093-1.136,0.209c-1.228,0.324-2.897,0.603-4.148,0.603
		c-2.759,0-5.285-0.765-7.07-2.573C0.742,41.344,0,39.513,0,37.474c0-1.97,0.649-3.964,2.086-5.494
		c1.553-1.622,3.847-2.711,7.347-2.711c1.321,0,2.55,0.254,2.944,0.348c0.44,0.092,1.159,0.254,1.437,0.208
		c0,0.765,0.139,1.97,0.347,3.36c-0.069,0.186-0.486,0.209-0.625,0.071c-0.649-2.504-2.388-3.291-4.752-3.291
		c-4.497,0-6.467,3.198-6.467,6.674c0,4.451,2.295,7.951,6.954,7.951c1.437,0,2.294-0.302,2.55-0.695
		c0.115-0.162,0.231-0.579,0.231-1.321v-0.927c0-1.947-0.069-2.086-1.506-2.248l-1.02-0.116c-0.186-0.093-0.162-0.511,0-0.579
		c0.672,0.046,1.947,0.068,3.314,0.068c0.905,0,1.692-0.022,2.457-0.068c0.162,0.092,0.186,0.439,0.023,0.579l-0.37,0.046
		c-0.974,0.116-0.997,0.766-0.997,1.947V42.573z"/>
	<path clip-path="url(#SVGID_2_)" fill="#404040" d="M18.639,33.117c0-2.434-0.046-2.805-1.506-2.921l-0.58-0.046
		c-0.139-0.094-0.093-0.51,0.046-0.58c1.298,0.047,2.086,0.07,3.014,0.07c0.903,0,1.692-0.023,2.85-0.07
		c0.139,0.07,0.186,0.486,0.047,0.58l-0.557,0.046c-1.367,0.116-1.414,0.487-1.414,2.921v8.065c0,1.46,0.07,2.063,0.487,2.503
		c0.255,0.255,0.696,0.533,2.527,0.533c1.97,0,2.457-0.093,2.828-0.301c0.463-0.278,1.066-1.113,1.529-2.295
		c0.139-0.115,0.58-0.024,0.58,0.139c0,0.255-0.649,2.619-0.974,3.245c-1.182-0.046-3.384-0.069-5.771-0.069h-2.132
		c-0.974,0-1.716,0.023-3.014,0.069c-0.139-0.069-0.185-0.44-0.046-0.579l0.695-0.069c1.345-0.14,1.391-0.464,1.391-2.897V33.117z"
		/>
	<path clip-path="url(#SVGID_2_)" fill="#404040" d="M28.701,37.452c0-4.636,3.476-8.182,8.251-8.182
		c5.354,0,8.043,3.87,8.043,7.949c0,4.683-3.569,8.09-8.043,8.09C31.806,45.309,28.701,41.624,28.701,37.452 M42.677,37.938
		c0-3.824-1.692-7.949-6.119-7.949c-2.41,0-5.54,1.644-5.54,6.72c0,3.431,1.669,7.881,6.236,7.881
		C40.035,44.59,42.677,42.504,42.677,37.938"/>
	<path clip-path="url(#SVGID_2_)" fill="#404040" d="M48.453,32.653c0-1.716-0.093-2.155-1.136-2.249l-0.742-0.068
		c-0.185-0.14-0.162-0.488,0.024-0.58c1.251-0.116,2.827-0.186,4.983-0.186c1.46,0,2.851,0.116,3.894,0.648
		c0.996,0.488,1.761,1.415,1.761,2.899c0,1.668-0.973,2.525-2.364,3.175c0,0.231,0.186,0.301,0.44,0.347
		c1.252,0.232,3.106,1.391,3.106,3.87c0,2.69-1.993,4.498-6.165,4.498c-0.672,0-1.808-0.069-2.781-0.069
		c-1.02,0-1.808,0.046-2.666,0.069c-0.139-0.069-0.185-0.44-0.046-0.579l0.417-0.069c1.228-0.209,1.275-0.464,1.275-2.897V32.653z
		 M50.353,35.736c0,0.648,0.023,0.695,1.206,0.648c2.364-0.092,3.638-0.788,3.638-2.966c0-2.272-1.692-3.129-3.453-3.129
		c-0.51,0-0.858,0.047-1.066,0.138c-0.232,0.071-0.325,0.186-0.325,0.604V35.736z M50.353,41.113c0,0.834,0.046,2.017,0.487,2.526
		c0.44,0.533,1.136,0.648,1.831,0.648c2.063,0,3.639-0.927,3.639-3.245c0-1.83-0.927-3.963-4.612-3.963
		c-1.252,0-1.345,0.138-1.345,0.602V41.113z"/>
	<path clip-path="url(#SVGID_2_)" fill="#404040" d="M68.365,39.561c-0.162-0.51-0.255-0.581-0.95-0.581h-3.5
		c-0.579,0-0.719,0.071-0.881,0.557l-0.811,2.434c-0.347,1.043-0.51,1.669-0.51,1.924c0,0.278,0.116,0.417,0.672,0.464l0.765,0.069
		c0.163,0.116,0.163,0.486-0.046,0.579c-0.603-0.046-1.321-0.046-2.411-0.069c-0.765,0-1.599,0.046-2.225,0.069
		c-0.139-0.093-0.185-0.463-0.046-0.579l0.765-0.069c0.556-0.047,1.066-0.302,1.39-1.136c0.418-1.066,1.067-2.574,2.04-5.168
		l2.364-6.259c0.325-0.834,0.464-1.275,0.394-1.645c0.557-0.162,0.951-0.58,1.206-0.881c0.138,0,0.301,0.046,0.347,0.208
		c0.302,1.021,0.672,2.087,1.02,3.107l3.176,9.317c0.672,1.993,0.973,2.341,1.969,2.457l0.626,0.069
		c0.162,0.116,0.116,0.486,0,0.579c-0.95-0.046-1.761-0.069-2.804-0.069c-1.113,0-1.993,0.046-2.666,0.069
		c-0.185-0.093-0.208-0.463-0.046-0.579l0.672-0.069c0.487-0.047,0.811-0.186,0.811-0.418c0-0.255-0.116-0.671-0.301-1.228
		L68.365,39.561z M63.776,37.498c-0.186,0.532-0.162,0.556,0.487,0.556h2.85c0.673,0,0.719-0.093,0.511-0.719l-1.252-3.778
		c-0.185-0.556-0.394-1.182-0.533-1.46h-0.046c-0.07,0.116-0.302,0.672-0.557,1.368L63.776,37.498z"/>
	<path clip-path="url(#SVGID_2_)" fill="#404040" d="M75.762,33.117c0-2.434-0.046-2.805-1.506-2.921l-0.58-0.046
		c-0.139-0.094-0.093-0.51,0.046-0.58c1.298,0.047,2.086,0.07,3.014,0.07c0.903,0,1.692-0.023,2.85-0.07
		c0.139,0.07,0.186,0.486,0.047,0.58l-0.557,0.046c-1.367,0.116-1.414,0.487-1.414,2.921v8.065c0,1.46,0.07,2.063,0.487,2.503
		c0.255,0.255,0.696,0.533,2.527,0.533c1.97,0,2.457-0.093,2.828-0.301c0.463-0.278,1.066-1.113,1.529-2.295
		c0.139-0.115,0.58-0.024,0.58,0.139c0,0.255-0.649,2.619-0.974,3.245c-1.183-0.046-3.384-0.069-5.771-0.069h-2.132
		c-0.974,0-1.716,0.023-3.014,0.069c-0.139-0.069-0.185-0.44-0.046-0.579l0.695-0.069c1.345-0.14,1.391-0.464,1.391-2.897V33.117z"
		/>
	<path clip-path="url(#SVGID_2_)" fill="#404040" d="M105.271,42.573c0,0.927,0.139,1.483,0.557,1.646
		c0.069,0.068,0.069,0.208-0.023,0.277c-0.278,0-0.695,0.093-1.136,0.209c-1.229,0.324-2.897,0.603-4.149,0.603
		c-2.758,0-5.284-0.765-7.069-2.573c-1.391-1.391-2.132-3.222-2.132-5.261c0-1.97,0.648-3.964,2.086-5.494
		c1.553-1.622,3.848-2.711,7.348-2.711c1.321,0,2.549,0.254,2.943,0.348c0.44,0.092,1.159,0.254,1.437,0.208
		c0,0.765,0.14,1.97,0.348,3.36c-0.069,0.186-0.486,0.209-0.625,0.071c-0.649-2.504-2.388-3.291-4.752-3.291
		c-4.496,0-6.467,3.198-6.467,6.674c0,4.451,2.295,7.951,6.954,7.951c1.437,0,2.294-0.302,2.549-0.695
		c0.116-0.162,0.232-0.579,0.232-1.321v-0.927c0-1.947-0.07-2.086-1.507-2.248l-1.02-0.116c-0.186-0.093-0.163-0.511,0-0.579
		c0.672,0.046,1.946,0.068,3.314,0.068c0.903,0,1.691-0.022,2.456-0.068c0.163,0.092,0.186,0.439,0.023,0.579l-0.371,0.046
		c-0.973,0.116-0.996,0.766-0.996,1.947V42.573z"/>
	<path clip-path="url(#SVGID_2_)" fill="#404040" d="M109.956,33.14c0-2.203-0.069-2.596-1.02-2.712l-0.742-0.092
		c-0.162-0.117-0.162-0.487,0.023-0.58c1.298-0.115,2.897-0.186,5.169-0.186c1.437,0,2.805,0.116,3.87,0.696
		c1.113,0.58,1.924,1.623,1.924,3.245c0,2.202-1.738,3.407-2.897,3.87c-0.115,0.139,0,0.371,0.116,0.556
		c1.854,2.991,3.083,4.844,4.659,6.167c0.394,0.348,0.974,0.603,1.599,0.648c0.116,0.047,0.14,0.231,0.023,0.324
		c-0.208,0.07-0.579,0.116-1.02,0.116c-1.971,0-3.152-0.579-4.798-2.921c-0.603-0.857-1.553-2.458-2.271-3.5
		c-0.348-0.509-0.719-0.741-1.646-0.741c-1.043,0-1.09,0.024-1.09,0.511v2.92c0,2.434,0.047,2.712,1.391,2.897l0.487,0.069
		c0.139,0.116,0.093,0.51-0.047,0.579c-1.043-0.046-1.831-0.069-2.758-0.069c-0.974,0-1.808,0.023-2.897,0.069
		c-0.139-0.069-0.186-0.417-0.046-0.579l0.579-0.069c1.345-0.163,1.391-0.464,1.391-2.897V33.14z M111.856,36.454
		c0,0.417,0,0.673,0.069,0.765c0.07,0.07,0.418,0.116,1.6,0.116c0.835,0,1.715-0.093,2.388-0.603
		c0.626-0.486,1.158-1.298,1.158-2.874c0-1.831-1.136-3.569-3.708-3.569c-1.438,0-1.507,0.093-1.507,0.742V36.454z"/>
	<path clip-path="url(#SVGID_2_)" fill="#404040" d="M124.33,33.117c0-2.411-0.046-2.759-1.414-2.921l-0.371-0.046
		c-0.139-0.094-0.092-0.51,0.047-0.58c0.996,0.047,1.784,0.07,2.735,0.07h4.357c1.483,0,2.851,0,3.129-0.07
		c0.139,0.395,0.278,2.063,0.371,3.083c-0.093,0.139-0.464,0.185-0.58,0.046c-0.348-1.09-0.556-1.9-1.762-2.201
		c-0.486-0.116-1.229-0.14-2.248-0.14h-1.669c-0.695,0-0.695,0.046-0.695,0.927v4.637c0,0.648,0.069,0.648,0.765,0.648h1.345
		c0.974,0,1.692-0.047,1.97-0.139c0.278-0.093,0.44-0.232,0.557-0.811l0.186-0.95c0.116-0.139,0.51-0.139,0.603,0.023
		c0,0.556-0.093,1.459-0.093,2.34c0,0.835,0.093,1.716,0.093,2.226c-0.093,0.162-0.486,0.162-0.603,0.023l-0.209-0.904
		c-0.093-0.417-0.255-0.765-0.718-0.88c-0.325-0.094-0.881-0.117-1.785-0.117h-1.345c-0.695,0-0.765,0.023-0.765,0.627v3.267
		c0,1.229,0.069,2.017,0.44,2.41c0.278,0.278,0.765,0.533,2.806,0.533c1.784,0,2.456-0.093,2.966-0.348
		c0.417-0.231,1.043-1.043,1.646-2.248c0.162-0.115,0.487-0.047,0.58,0.162c-0.163,0.811-0.742,2.596-1.044,3.222
		c-2.086-0.046-4.147-0.069-6.211-0.069h-2.086c-0.997,0-1.785,0.023-3.152,0.069c-0.14-0.069-0.186-0.44-0.047-0.579l0.766-0.069
		c1.32-0.116,1.437-0.464,1.437-2.897V33.117z"/>
	<path clip-path="url(#SVGID_2_)" fill="#404040" d="M137.289,33.117c0-2.411-0.046-2.759-1.414-2.921l-0.371-0.046
		c-0.139-0.094-0.092-0.51,0.047-0.58c0.996,0.047,1.784,0.07,2.735,0.07h4.357c1.483,0,2.851,0,3.129-0.07
		c0.139,0.395,0.278,2.063,0.371,3.083c-0.093,0.139-0.464,0.185-0.58,0.046c-0.348-1.09-0.556-1.9-1.762-2.201
		c-0.486-0.116-1.229-0.14-2.248-0.14h-1.669c-0.695,0-0.695,0.046-0.695,0.927v4.637c0,0.648,0.069,0.648,0.765,0.648h1.345
		c0.974,0,1.692-0.047,1.97-0.139c0.278-0.093,0.44-0.232,0.557-0.811l0.186-0.95c0.116-0.139,0.51-0.139,0.603,0.023
		c0,0.556-0.093,1.459-0.093,2.34c0,0.835,0.093,1.716,0.093,2.226c-0.093,0.162-0.486,0.162-0.603,0.023l-0.209-0.904
		c-0.093-0.417-0.255-0.765-0.718-0.88c-0.325-0.094-0.881-0.117-1.785-0.117h-1.345c-0.695,0-0.765,0.023-0.765,0.627v3.267
		c0,1.229,0.069,2.017,0.44,2.41c0.278,0.278,0.765,0.533,2.806,0.533c1.784,0,2.457-0.093,2.966-0.348
		c0.417-0.231,1.043-1.043,1.646-2.248c0.162-0.115,0.487-0.047,0.58,0.162c-0.163,0.811-0.742,2.596-1.044,3.222
		c-2.086-0.046-4.147-0.069-6.211-0.069h-2.086c-0.997,0-1.785,0.023-3.152,0.069c-0.14-0.069-0.186-0.44-0.047-0.579l0.766-0.069
		c1.32-0.116,1.437-0.464,1.437-2.897V33.117z"/>
	<path clip-path="url(#SVGID_2_)" fill="#404040" d="M162.719,40.997c0,0.695,0,3.454,0.069,4.057
		c-0.046,0.139-0.186,0.255-0.44,0.255c-0.277-0.395-0.95-1.205-2.967-3.5l-5.377-6.12c-0.626-0.718-2.202-2.619-2.688-3.129h-0.047
		c-0.093,0.278-0.115,0.811-0.115,1.506v5.053c0,1.09,0.022,4.104,0.417,4.799c0.139,0.255,0.603,0.394,1.182,0.44l0.719,0.069
		c0.139,0.186,0.116,0.464-0.046,0.579c-1.043-0.046-1.854-0.069-2.712-0.069c-0.974,0-1.6,0.023-2.411,0.069
		c-0.162-0.115-0.187-0.44-0.046-0.579l0.626-0.069c0.533-0.07,0.903-0.209,1.02-0.464c0.324-0.834,0.302-3.663,0.302-4.775v-6.697
		c0-0.65-0.023-1.137-0.511-1.67c-0.324-0.324-0.881-0.486-1.437-0.556l-0.395-0.046c-0.139-0.139-0.139-0.487,0.046-0.58
		c0.975,0.071,2.203,0.071,2.62,0.071c0.371,0,0.765-0.024,1.066-0.071c0.463,1.182,3.198,4.242,3.963,5.1l2.248,2.525
		c1.6,1.785,2.735,3.084,3.825,4.196h0.046c0.093-0.116,0.093-0.487,0.093-0.973v-4.961c0-1.089-0.023-4.102-0.464-4.797
		c-0.139-0.209-0.51-0.348-1.437-0.464l-0.395-0.046c-0.162-0.139-0.139-0.509,0.047-0.58c1.066,0.047,1.854,0.071,2.734,0.071
		c0.997,0,1.6-0.024,2.388-0.071c0.186,0.116,0.186,0.441,0.047,0.58l-0.325,0.046c-0.741,0.116-1.206,0.302-1.298,0.488
		c-0.394,0.834-0.348,3.708-0.348,4.773V40.997z"/>
	<path clip-path="url(#SVGID_2_)" fill="#404040" d="M16.076,52.731c0-0.85-0.016-0.985-0.489-1.025l-0.2-0.017
		c-0.048-0.031-0.032-0.176,0.016-0.2c0.401,0.017,0.673,0.024,1.009,0.024c0.321,0,0.593-0.008,0.994-0.024
		c0.048,0.024,0.064,0.169,0.016,0.2l-0.2,0.017c-0.473,0.04-0.489,0.176-0.489,1.025v2.852c0,0.85,0.016,0.962,0.489,1.018
		l0.2,0.024c0.048,0.031,0.032,0.176-0.016,0.2c-0.401-0.017-0.673-0.024-0.994-0.024c-0.336,0-0.608,0.008-1.009,0.024
		c-0.048-0.024-0.064-0.152-0.016-0.2l0.2-0.024c0.473-0.056,0.489-0.168,0.489-1.018V52.731z"/>
	<path clip-path="url(#SVGID_2_)" fill="#404040" d="M26.695,55.438c0,0.241,0,1.194,0.024,1.402
		c-0.016,0.048-0.064,0.088-0.152,0.088c-0.097-0.137-0.329-0.416-1.026-1.209l-1.858-2.115c-0.217-0.248-0.761-0.905-0.929-1.081
		h-0.017c-0.032,0.096-0.04,0.28-0.04,0.521v1.746c0,0.377,0.008,1.418,0.144,1.658c0.049,0.088,0.209,0.137,0.409,0.152
		l0.248,0.024c0.049,0.063,0.041,0.16-0.015,0.2c-0.361-0.017-0.642-0.024-0.938-0.024c-0.336,0-0.553,0.008-0.833,0.024
		c-0.056-0.04-0.064-0.152-0.016-0.2l0.216-0.024c0.184-0.024,0.313-0.072,0.353-0.16c0.112-0.288,0.104-1.266,0.104-1.65v-2.315
		c0-0.225-0.008-0.393-0.176-0.576c-0.112-0.112-0.305-0.169-0.497-0.192l-0.136-0.017c-0.048-0.048-0.048-0.168,0.016-0.2
		c0.336,0.024,0.761,0.024,0.905,0.024c0.128,0,0.264-0.008,0.369-0.024c0.16,0.409,1.105,1.466,1.369,1.763l0.777,0.873
		c0.553,0.617,0.946,1.065,1.322,1.45h0.016c0.032-0.04,0.032-0.168,0.032-0.337v-1.714c0-0.377-0.008-1.418-0.16-1.658
		c-0.048-0.072-0.176-0.12-0.496-0.16l-0.137-0.017c-0.056-0.048-0.048-0.176,0.017-0.2c0.368,0.017,0.64,0.024,0.944,0.024
		c0.345,0,0.553-0.008,0.826-0.024c0.064,0.04,0.064,0.152,0.016,0.2l-0.113,0.017c-0.256,0.04-0.416,0.104-0.448,0.168
		c-0.136,0.288-0.12,1.282-0.12,1.65V55.438z"/>
	<path clip-path="url(#SVGID_2_)" fill="#404040" d="M32.033,52.362c-0.185-0.448-0.305-0.616-0.649-0.656l-0.144-0.017
		c-0.056-0.048-0.048-0.16,0.016-0.2c0.232,0.017,0.488,0.024,0.833,0.024c0.352,0,0.633-0.008,0.969-0.024
		c0.056,0.032,0.072,0.152,0.016,0.2l-0.12,0.017c-0.304,0.04-0.368,0.088-0.377,0.152c0.017,0.08,0.153,0.513,0.401,1.121
		c0.368,0.93,0.737,1.851,1.138,2.764c0.248-0.528,0.584-1.354,0.769-1.778c0.232-0.545,0.608-1.45,0.745-1.794
		c0.064-0.169,0.072-0.257,0.072-0.312c0-0.057-0.08-0.12-0.361-0.152l-0.144-0.017c-0.056-0.048-0.04-0.168,0.016-0.2
		c0.224,0.017,0.529,0.024,0.833,0.024c0.265,0,0.513-0.008,0.778-0.024c0.055,0.032,0.055,0.16,0.015,0.2l-0.24,0.017
		c-0.192,0.016-0.313,0.112-0.417,0.28c-0.224,0.376-0.536,1.025-0.897,1.843l-0.432,0.985c-0.321,0.735-0.697,1.666-0.834,2.091
		c-0.024,0.016-0.055,0.023-0.088,0.023c-0.04,0-0.08-0.008-0.12-0.023c-0.088-0.337-0.232-0.73-0.368-1.065L32.033,52.362z"/>
	<path clip-path="url(#SVGID_2_)" fill="#404040" d="M41.273,52.715c0-0.833-0.016-0.953-0.489-1.009l-0.128-0.017
		c-0.048-0.031-0.032-0.176,0.016-0.2c0.345,0.017,0.617,0.024,0.945,0.024h1.507c0.512,0,0.985,0,1.081-0.024
		c0.048,0.137,0.096,0.713,0.128,1.065c-0.032,0.049-0.16,0.064-0.2,0.017c-0.12-0.377-0.193-0.657-0.609-0.762
		c-0.168-0.04-0.424-0.048-0.777-0.048H42.17c-0.24,0-0.24,0.017-0.24,0.32v1.603c0,0.225,0.024,0.225,0.264,0.225h0.465
		c0.336,0,0.585-0.017,0.681-0.048c0.096-0.032,0.152-0.081,0.192-0.281l0.064-0.328c0.04-0.048,0.177-0.048,0.208,0.008
		c0,0.192-0.031,0.505-0.031,0.81c0,0.288,0.031,0.593,0.031,0.769c-0.031,0.057-0.168,0.057-0.208,0.008l-0.072-0.312
		c-0.032-0.145-0.088-0.265-0.248-0.305c-0.112-0.032-0.305-0.04-0.617-0.04h-0.465c-0.24,0-0.264,0.008-0.264,0.216v1.13
		c0,0.425,0.024,0.697,0.152,0.833c0.096,0.096,0.264,0.185,0.969,0.185c0.617,0,0.849-0.032,1.026-0.12
		c0.144-0.08,0.36-0.36,0.569-0.777c0.056-0.04,0.168-0.016,0.2,0.056c-0.056,0.28-0.257,0.897-0.361,1.114
		c-0.721-0.017-1.434-0.024-2.147-0.024h-0.721c-0.344,0-0.616,0.008-1.089,0.024c-0.048-0.024-0.064-0.152-0.016-0.2l0.264-0.024
		c0.457-0.04,0.497-0.16,0.497-1.001V52.715z"/>
	<path clip-path="url(#SVGID_2_)" fill="#404040" d="M50.321,56.929c-0.673,0-1.098-0.208-1.25-0.296
		c-0.096-0.177-0.2-0.745-0.216-1.122c0.04-0.056,0.16-0.072,0.192-0.023c0.12,0.408,0.449,1.193,1.378,1.193
		c0.673,0,1.001-0.44,1.001-0.921c0-0.353-0.072-0.745-0.656-1.122l-0.761-0.496c-0.401-0.265-0.866-0.722-0.866-1.378
		c0-0.762,0.593-1.378,1.635-1.378c0.248,0,0.536,0.048,0.745,0.104c0.104,0.032,0.216,0.049,0.28,0.049
		c0.072,0.191,0.144,0.641,0.144,0.977c-0.032,0.049-0.16,0.072-0.2,0.024c-0.104-0.385-0.321-0.905-1.09-0.905
		c-0.785,0-0.953,0.521-0.953,0.89c0,0.464,0.385,0.801,0.681,0.985l0.641,0.399c0.504,0.313,1.002,0.777,1.002,1.539
		C52.028,56.328,51.363,56.929,50.321,56.929"/>
	<path clip-path="url(#SVGID_2_)" fill="#404040" d="M58.992,55.6c0,0.841,0.016,0.961,0.481,1.001l0.256,0.024
		c0.048,0.031,0.033,0.176-0.016,0.2c-0.456-0.017-0.729-0.024-1.049-0.024c-0.32,0-0.601,0.008-1.114,0.024
		c-0.048-0.024-0.064-0.16,0-0.2l0.289-0.024c0.456-0.04,0.496-0.16,0.496-1.001v-3.581c0-0.249,0-0.257-0.24-0.257h-0.44
		c-0.345,0-0.786,0.017-0.986,0.2c-0.192,0.177-0.272,0.353-0.361,0.553c-0.064,0.049-0.176,0.009-0.208-0.056
		c0.128-0.36,0.248-0.873,0.305-1.193c0.024-0.017,0.128-0.024,0.152,0c0.048,0.256,0.312,0.248,0.681,0.248h3.244
		c0.433,0,0.505-0.016,0.625-0.225c0.04-0.016,0.128-0.008,0.144,0.024c-0.088,0.328-0.144,0.978-0.12,1.218
		c-0.032,0.063-0.168,0.063-0.208,0.016c-0.024-0.2-0.08-0.496-0.201-0.585c-0.184-0.136-0.488-0.2-0.929-0.2h-0.569
		c-0.24,0-0.232,0.008-0.232,0.272V55.6z"/>
	<path clip-path="url(#SVGID_2_)" fill="#404040" d="M68.047,54.662c0.184,0.376,0.36,0.745,0.553,1.098h0.016
		c0.216-0.377,0.416-0.794,0.617-1.202l0.752-1.53c0.361-0.729,0.593-1.169,0.609-1.538c0.273,0.024,0.441,0.024,0.601,0.024
		c0.201,0,0.465-0.008,0.713-0.024c0.048,0.032,0.048,0.169,0.008,0.2l-0.168,0.017c-0.505,0.048-0.569,0.2-0.561,0.761
		c0.016,0.85,0.025,2.331,0.089,3.484c0.023,0.401,0.016,0.617,0.392,0.648l0.256,0.025c0.048,0.048,0.04,0.168-0.016,0.2
		c-0.328-0.018-0.656-0.024-0.945-0.024c-0.28,0-0.641,0.007-0.969,0.024c-0.056-0.04-0.065-0.152-0.016-0.2L70.21,56.6
		c0.393-0.039,0.393-0.167,0.393-0.68l-0.025-3.341h-0.015c-0.057,0.088-0.361,0.729-0.521,1.041l-0.713,1.402
		c-0.361,0.705-0.721,1.458-0.865,1.826c-0.017,0.024-0.048,0.032-0.081,0.032c-0.016,0-0.056-0.008-0.072-0.032
		c-0.136-0.425-0.52-1.209-0.704-1.602L66.885,53.7c-0.168-0.368-0.336-0.785-0.512-1.153h-0.016
		c-0.032,0.497-0.057,0.962-0.081,1.426c-0.023,0.489-0.056,1.202-0.056,1.883c0,0.593,0.049,0.721,0.361,0.744l0.304,0.025
		c0.057,0.048,0.049,0.176-0.007,0.2c-0.273-0.018-0.585-0.024-0.89-0.024c-0.256,0-0.545,0.007-0.817,0.024
		c-0.048-0.04-0.064-0.16-0.016-0.2l0.176-0.025c0.337-0.047,0.449-0.096,0.497-0.656c0.048-0.528,0.088-0.97,0.136-1.762
		c0.04-0.666,0.072-1.347,0.088-1.787c0.016-0.505-0.048-0.625-0.536-0.688l-0.129-0.017c-0.04-0.049-0.031-0.168,0.033-0.2
		c0.24,0.017,0.432,0.024,0.632,0.024c0.184,0,0.401,0,0.665-0.024c-0.032,0.312,0.168,0.81,0.417,1.322L68.047,54.662z"/>
	<path clip-path="url(#SVGID_2_)" fill="#404040" d="M76.861,52.715c0-0.833-0.016-0.953-0.489-1.009l-0.128-0.017
		c-0.048-0.031-0.032-0.176,0.016-0.2c0.345,0.017,0.617,0.024,0.945,0.024h1.507c0.512,0,0.985,0,1.081-0.024
		c0.048,0.137,0.096,0.713,0.128,1.065c-0.032,0.049-0.16,0.064-0.2,0.017c-0.12-0.377-0.193-0.657-0.609-0.762
		c-0.168-0.04-0.424-0.048-0.777-0.048h-0.577c-0.24,0-0.24,0.017-0.24,0.32v1.603c0,0.225,0.024,0.225,0.264,0.225h0.465
		c0.336,0,0.585-0.017,0.681-0.048c0.096-0.032,0.152-0.081,0.192-0.281l0.064-0.328c0.04-0.048,0.177-0.048,0.208,0.008
		c0,0.192-0.031,0.505-0.031,0.81c0,0.288,0.031,0.593,0.031,0.769c-0.031,0.057-0.168,0.057-0.208,0.008l-0.072-0.312
		c-0.032-0.145-0.088-0.265-0.248-0.305c-0.112-0.032-0.305-0.04-0.617-0.04h-0.465c-0.24,0-0.264,0.008-0.264,0.216v1.13
		c0,0.425,0.024,0.697,0.152,0.833c0.096,0.096,0.264,0.185,0.969,0.185c0.617,0,0.849-0.032,1.026-0.12
		c0.144-0.08,0.36-0.36,0.569-0.777c0.056-0.04,0.168-0.016,0.2,0.056c-0.056,0.28-0.257,0.897-0.361,1.114
		c-0.721-0.017-1.434-0.024-2.147-0.024h-0.721c-0.344,0-0.616,0.008-1.089,0.024c-0.048-0.024-0.064-0.152-0.016-0.2l0.264-0.024
		c0.457-0.04,0.497-0.16,0.497-1.001V52.715z"/>
	<path clip-path="url(#SVGID_2_)" fill="#404040" d="M89.45,55.438c0,0.241,0,1.194,0.023,1.402
		c-0.016,0.048-0.063,0.088-0.151,0.088c-0.097-0.137-0.329-0.416-1.025-1.209l-1.858-2.115c-0.217-0.248-0.762-0.905-0.93-1.081
		h-0.017c-0.032,0.096-0.04,0.28-0.04,0.521v1.746c0,0.377,0.008,1.418,0.145,1.658c0.049,0.088,0.209,0.137,0.408,0.152
		l0.248,0.024c0.049,0.063,0.041,0.16-0.015,0.2c-0.361-0.017-0.642-0.024-0.938-0.024c-0.336,0-0.553,0.008-0.833,0.024
		c-0.056-0.04-0.063-0.152-0.016-0.2l0.216-0.024c0.185-0.024,0.313-0.072,0.354-0.16c0.111-0.288,0.104-1.266,0.104-1.65v-2.315
		c0-0.225-0.008-0.393-0.176-0.576c-0.112-0.112-0.305-0.169-0.497-0.192l-0.136-0.017c-0.048-0.048-0.048-0.168,0.016-0.2
		c0.336,0.024,0.761,0.024,0.905,0.024c0.128,0,0.264-0.008,0.369-0.024c0.16,0.409,1.104,1.466,1.369,1.763l0.777,0.873
		c0.553,0.617,0.945,1.065,1.321,1.45h0.017c0.031-0.04,0.031-0.168,0.031-0.337v-1.714c0-0.377-0.008-1.418-0.16-1.658
		c-0.048-0.072-0.176-0.12-0.496-0.16l-0.137-0.017c-0.056-0.048-0.048-0.176,0.017-0.2c0.368,0.017,0.641,0.024,0.945,0.024
		c0.344,0,0.553-0.008,0.825-0.024c0.064,0.04,0.064,0.152,0.016,0.2l-0.112,0.017c-0.257,0.04-0.416,0.104-0.448,0.168
		c-0.137,0.288-0.12,1.282-0.12,1.65V55.438z"/>
	<path clip-path="url(#SVGID_2_)" fill="#404040" d="M96.936,55.6c0,0.841,0.016,0.961,0.479,1.001l0.257,0.024
		c0.049,0.031,0.032,0.176-0.016,0.2c-0.457-0.017-0.729-0.024-1.05-0.024c-0.32,0-0.601,0.008-1.113,0.024
		c-0.048-0.024-0.063-0.16,0-0.2l0.288-0.024c0.457-0.04,0.497-0.16,0.497-1.001v-3.581c0-0.249,0-0.257-0.24-0.257h-0.44
		c-0.345,0-0.785,0.017-0.985,0.2c-0.192,0.177-0.272,0.353-0.36,0.553c-0.064,0.049-0.177,0.009-0.209-0.056
		c0.129-0.36,0.248-0.873,0.305-1.193c0.024-0.017,0.128-0.024,0.151,0c0.049,0.256,0.313,0.248,0.682,0.248h3.245
		c0.432,0,0.504-0.016,0.624-0.225c0.04-0.016,0.129-0.008,0.145,0.024c-0.088,0.328-0.145,0.978-0.12,1.218
		c-0.033,0.063-0.168,0.063-0.208,0.016c-0.024-0.2-0.08-0.496-0.201-0.585c-0.184-0.136-0.488-0.2-0.929-0.2h-0.568
		c-0.24,0-0.232,0.008-0.232,0.272V55.6z"/>
	<path clip-path="url(#SVGID_2_)" fill="#404040" d="M113.67,55.983c0,0.32,0.048,0.513,0.191,0.569
		c0.024,0.023,0.024,0.072-0.008,0.096c-0.096,0-0.24,0.032-0.393,0.072c-0.424,0.112-1.001,0.208-1.434,0.208
		c-0.953,0-1.826-0.264-2.443-0.889c-0.48-0.48-0.737-1.114-0.737-1.818c0-0.682,0.225-1.37,0.722-1.899
		c0.536-0.561,1.329-0.937,2.539-0.937c0.457,0,0.881,0.088,1.018,0.12c0.152,0.032,0.399,0.088,0.496,0.072
		c0,0.264,0.049,0.681,0.12,1.161c-0.023,0.064-0.168,0.072-0.217,0.024c-0.224-0.865-0.824-1.138-1.642-1.138
		c-1.554,0-2.234,1.105-2.234,2.307c0,1.538,0.792,2.748,2.403,2.748c0.496,0,0.793-0.104,0.881-0.24
		c0.04-0.057,0.08-0.2,0.08-0.457v-0.32c0-0.673-0.024-0.721-0.521-0.777l-0.353-0.04c-0.064-0.031-0.057-0.176,0-0.2
		c0.232,0.017,0.673,0.024,1.146,0.024c0.312,0,0.585-0.008,0.849-0.024c0.057,0.032,0.064,0.152,0.009,0.2l-0.129,0.017
		c-0.336,0.04-0.344,0.265-0.344,0.673V55.983z"/>
	<path clip-path="url(#SVGID_2_)" fill="#404040" d="M119.088,52.724c0-0.762-0.024-0.897-0.353-0.938l-0.256-0.032
		c-0.057-0.04-0.057-0.168,0.008-0.2c0.448-0.039,1.001-0.064,1.786-0.064c0.497,0,0.97,0.04,1.338,0.24
		c0.385,0.2,0.665,0.562,0.665,1.122c0,0.761-0.601,1.178-1.002,1.338c-0.04,0.048,0,0.128,0.04,0.192
		c0.642,1.033,1.065,1.675,1.61,2.131c0.137,0.12,0.337,0.208,0.553,0.224c0.04,0.017,0.049,0.08,0.009,0.112
		c-0.072,0.024-0.201,0.041-0.353,0.041c-0.682,0-1.09-0.201-1.659-1.01c-0.209-0.297-0.536-0.85-0.784-1.21
		c-0.12-0.176-0.249-0.257-0.569-0.257c-0.36,0-0.376,0.009-0.376,0.177v1.01c0,0.841,0.016,0.937,0.479,1.001l0.169,0.024
		c0.048,0.04,0.032,0.176-0.016,0.2c-0.36-0.017-0.633-0.024-0.953-0.024c-0.337,0-0.625,0.008-1.002,0.024
		c-0.048-0.024-0.063-0.144-0.016-0.2l0.2-0.024c0.465-0.056,0.48-0.16,0.48-1.001V52.724z M119.745,53.869
		c0,0.144,0,0.232,0.023,0.264c0.024,0.024,0.145,0.04,0.553,0.04c0.289,0,0.593-0.031,0.825-0.208c0.217-0.168,0.4-0.448,0.4-0.992
		c0-0.634-0.393-1.234-1.281-1.234c-0.497,0-0.521,0.031-0.521,0.256V53.869z"/>
	<path clip-path="url(#SVGID_2_)" fill="#404040" d="M126.909,54.213c0-1.602,1.202-2.827,2.852-2.827
		c1.852,0,2.78,1.338,2.78,2.747c0,1.618-1.233,2.796-2.78,2.796C127.983,56.929,126.909,55.655,126.909,54.213 M131.74,54.382
		c0-1.322-0.585-2.748-2.115-2.748c-0.833,0-1.914,0.568-1.914,2.323c0,1.186,0.576,2.724,2.154,2.724
		C130.827,56.681,131.74,55.96,131.74,54.382"/>
	<path clip-path="url(#SVGID_2_)" fill="#404040" d="M141.356,53.524c0-0.497-0.017-1.418-0.152-1.658
		c-0.056-0.097-0.201-0.153-0.4-0.168l-0.2-0.017c-0.048-0.056-0.032-0.16,0.016-0.192c0.305,0.017,0.601,0.024,0.913,0.024
		c0.337,0,0.553-0.008,0.842-0.024c0.063,0.04,0.056,0.145,0.016,0.192l-0.192,0.017c-0.2,0.015-0.353,0.088-0.4,0.191
		c-0.112,0.265-0.112,1.187-0.112,1.635v0.905c0,0.697-0.112,1.434-0.561,1.914c-0.345,0.377-0.938,0.585-1.53,0.585
		c-0.553,0-1.105-0.104-1.498-0.44c-0.426-0.353-0.625-0.938-0.625-1.891v-1.891c0-0.833-0.016-0.969-0.48-1.009l-0.2-0.017
		c-0.048-0.032-0.032-0.168,0.017-0.192c0.4,0.017,0.673,0.024,0.993,0.024c0.327,0,0.593-0.008,0.985-0.024
		c0.048,0.024,0.063,0.16,0.016,0.192l-0.192,0.017c-0.465,0.04-0.481,0.176-0.481,1.009v1.73c0,1.29,0.401,2.139,1.626,2.139
		c1.163,0,1.604-0.913,1.604-2.131V53.524z"/>
	<path clip-path="url(#SVGID_2_)" fill="#404040" d="M147.769,55.6c0,0.841,0.016,0.945,0.528,1.001l0.217,0.024
		c0.048,0.04,0.031,0.176-0.016,0.2c-0.457-0.017-0.722-0.024-1.041-0.024c-0.338,0-0.625,0.008-0.979,0.024
		c-0.048-0.024-0.063-0.152-0.016-0.2l0.168-0.024c0.465-0.064,0.48-0.16,0.48-1.001v-2.956c0-0.682-0.016-0.817-0.377-0.857
		l-0.288-0.032c-0.056-0.048-0.048-0.168,0.017-0.2c0.424-0.056,0.921-0.064,1.586-0.064s1.161,0.089,1.538,0.32
		c0.369,0.232,0.641,0.649,0.641,1.202c0,0.737-0.457,1.105-0.801,1.273c-0.353,0.168-0.777,0.24-1.105,0.24
		c-0.057-0.023-0.057-0.144-0.009-0.16c0.865-0.161,1.178-0.648,1.178-1.346c0-0.777-0.456-1.281-1.289-1.281
		c-0.425,0-0.433,0.031-0.433,0.288V55.6z"/>
</g>
<g>
	<defs>
		<path id="SVGID_3_" d="M82.173,0C67.154,0,54.145,8.757,47.979,21.436h2.12C56.114,9.834,68.229,1.886,82.173,1.886
			c13.943,0,26.059,7.948,32.073,19.549h2.121C110.202,8.757,97.189,0,82.173,0z"/>
	</defs>
	<clipPath id="SVGID_4_">
		<use xlink:href="#SVGID_3_"  overflow="visible"/>
	</clipPath>
	
		<linearGradient id="SVGID_5_" gradientUnits="userSpaceOnUse" x1="0" y1="81.8594" x2="1" y2="81.8594" gradientTransform="matrix(68.3882 0 0 -68.3882 48 5608.9482)">
		<stop  offset="0" style="stop-color:#00C7EF"/>
		<stop  offset="0.2574" style="stop-color:#8ED358"/>
		<stop  offset="0.4036" style="stop-color:#FFDA00"/>
		<stop  offset="0.5396" style="stop-color:#FE7D0F"/>
		<stop  offset="0.6814" style="stop-color:#FC1B1F"/>
		<stop  offset="0.6995" style="stop-color:#F2202E"/>
		<stop  offset="0.7773" style="stop-color:#CA3668"/>
		<stop  offset="0.849" style="stop-color:#AA4796"/>
		<stop  offset="0.9123" style="stop-color:#9354B7"/>
		<stop  offset="0.9648" style="stop-color:#855BCC"/>
		<stop  offset="1" style="stop-color:#805ED3"/>
	</linearGradient>
	<rect x="47.979" y="0" clip-path="url(#SVGID_4_)" fill="url(#SVGID_5_)" width="68.388" height="21.435"/>
</g>
<g>
	<defs>
		<rect id="SVGID_6_" y="0" width="164.788" height="81.859"/>
	</defs>
	<clipPath id="SVGID_7_">
		<use xlink:href="#SVGID_6_"  overflow="visible"/>
	</clipPath>
	<path clip-path="url(#SVGID_7_)" fill="#26D5BA" d="M111.617,64.73c-6.55,9.213-17.302,15.242-29.445,15.242
		c-12.141,0-22.894-6.029-29.443-15.242h-2.291c6.804,10.309,18.485,17.129,31.734,17.129c13.25,0,24.933-6.82,31.736-17.129
		H111.617z"/>
	<rect x="39.339" y="63.235" clip-path="url(#SVGID_7_)" fill="#404040" width="85.668" height="1.744"/>
	<rect x="23.23" y="20.919" clip-path="url(#SVGID_7_)" fill="#404040" width="51.773" height="1.768"/>
	<rect x="89.344" y="20.92" clip-path="url(#SVGID_7_)" fill="#404040" width="51.771" height="1.768"/>
	<path clip-path="url(#SVGID_7_)" fill="#404040" d="M81.116,20.68c0,0-0.24-0.2-0.397-0.67c-0.024-0.075-3.571-2.014-3.435-4.346
		c0,0,0.064-0.99,1.08-1.62c0.36-0.223,0.256-0.938,0.297-1.061c0,0-0.256,0.031-0.413,0.537c0,0,0.008,0.248-0.125,0.388
		c-0.115,0.124-0.269,0.079-0.256-0.182c0.018-0.327,0.542-0.59,0.492-0.839c-0.049-0.248-0.752,0.438-0.752,0.438
		s0.284-0.591,0.604-0.752c0.284-0.145,0.232-0.241,0.346-0.297c0.043-0.022,0.085-0.022,0.199-0.051
		c0.256-0.066,0.315-0.694,1.174-0.446c0.723,0.209,0.811,1.372-0.148,1.902c-0.393,0.216-0.244,1.091-0.083,1.19
		c0.161,0.1,1.034-1.224,2.646-0.939c1.612,0.286,1.389,0.473,1.45,0.41c0.608-0.608,1.897-2.082,3.658-0.629
		c0.943,0.779,0.943,2.676-0.806,3.729l0.197,0.125c0,0-0.301,1.982-1.053,1.574c-0.595-0.322-1.104-0.904-1.253-0.942
		c0,0-0.149,0.076-0.136,0.124c0.013,0.049,0.917,0.718,0.931,0.818c0.011,0.1-0.262,0.012-0.299,0.012s0.31,0.187,0.235,0.223
		c-0.073,0.038-0.569-0.085-0.619-0.135c-0.051-0.049,0.843,0.681,0.769,0.744c-0.075,0.062-0.67-0.174-0.744-0.273
		c-0.075-0.099,0.459,0.558,0.348,0.619c-0.111,0.064-0.955-0.496-1.043-0.57c-0.087-0.074,0.249,0.472-0.087,0.694
		c-0.334,0.225-0.396,0.088-0.459,0.125c-0.061,0.037,0.199,1.092,0.237,1.103c0.037,0.013,0.309,0.013,0.322,0.101
		c0.012,0.085-0.111,0.074-0.212,0.074c-0.1,0-0.057,0.756-0.057,0.843c0,0.086,0.409,0.12,0.47,0.231
		c0.032,0.055,0.018,0.156-0.064,0.272c-0.053,0.075,0.016-0.192-0.009-0.197c-0.05-0.013-0.352-0.067-0.389-0.016
		c-0.038,0.048-0.326,0.274-0.47,0.534c-0.029,0.054-0.009-0.234,0.167-0.49c0.075-0.107-0.501,0.05-0.762,0.355
		c-0.039,0.044-0.014-0.18,0.218-0.33c0.14-0.092,0.317-0.11,0.548-0.187c0.292-0.093-0.321-1.959-0.433-2.144
		c-0.112-0.186-1.055-0.137-1.141-0.076c-0.087,0.064-0.224,0.201-0.224,0.237c0,0.038-0.173,0.708-0.173,0.806
		c0,0.099,0.198,0.074,0.224,0.211c0.024,0.136-0.249,0.136-0.299,0.136c-0.048,0-0.011,0.446-0.011,0.446s0.025,0.261,0.025,0.311
		c0,0.048,0.114,0.14,0.156,0.239c0.036,0.087-0.144-0.066-0.144-0.066s0.093,0.27,0.046,0.355
		c-0.042,0.075-0.031-0.289-0.175-0.271c-0.061,0.006-0.587,0.174-0.662,0.47c-0.016,0.066-0.068-0.259,0.257-0.454
		c0.123-0.075-0.537-0.016-0.769,0.263c-0.033,0.043-0.032-0.214,0.216-0.304c0.195-0.075,0.615-0.108,0.702-0.232
		C81.393,22.278,81.116,20.68,81.116,20.68"/>
</g>
</svg>
