<?xml version="1.0" encoding="utf-8"?>
<!-- Generator: Adobe Illustrator 15.0.2, SVG Export Plug-In  -->
<!DOCTYPE svg PUBLIC "-//W3C//DTD SVG 1.1//EN" "http://www.w3.org/Graphics/SVG/1.1/DTD/svg11.dtd" [
	<!ENTITY ns_flows "http://ns.adobe.com/Flows/1.0/">
]>
<svg version="1.1"
	 xmlns="http://www.w3.org/2000/svg" xmlns:xlink="http://www.w3.org/1999/xlink"
	 x="0px" y="0px" width="207px" height="112px" viewBox="0 0 207 112" enable-background="new 0 0 207 112" xml:space="preserve">
<defs>
</defs>
<g>
	<defs>
		<rect id="SVGID_2_" width="207.4" height="111.8"/>
	</defs>
	<clipPath id="SVGID_3_">
		<use xlink:href="#SVGID_2_"  overflow="visible"/>
	</clipPath>
	<g clip-path="url(#SVGID_3_)">
		<text transform="matrix(1 0 0 1 0 61.9102)"><tspan x="0" y="0" fill="#404040" font-family="'AGaramondPro-Bold'" font-size="27.6733">G</tspan><tspan x="20.3" y="0" fill="#404040" font-family="'AGaramondPro-Bold'" font-size="27.6733">L</tspan><tspan x="35.7" y="0" fill="#404040" font-family="'AGaramondPro-Bold'" font-size="27.6733">OBAL GREEN</tspan></text>
	</g>
</g>
<text transform="matrix(1 0 0 1 20.876 75.7705)"><tspan x="0" y="0" fill="#404040" font-family="'AGaramondPro-Regular'" font-size="9.1166" letter-spacing="4">INVE</tspan><tspan x="39.9" y="0" fill="#404040" font-family="'AGaramondPro-Regular'" font-size="9.1166" letter-spacing="4">S</tspan><tspan x="48.9" y="0" fill="#404040" font-family="'AGaramondPro-Regular'" font-size="9.1166" letter-spacing="4">TM</tspan><tspan x="72.4" y="0" fill="#404040" font-family="'AGaramondPro-Regular'" font-size="9.1166" letter-spacing="4">E</tspan><tspan x="82.3" y="0" fill="#404040" font-family="'AGaramondPro-Regular'" font-size="9.1166" letter-spacing="4">NT </tspan><tspan x="111.4" y="0" fill="#404040" font-family="'AGaramondPro-Regular'" font-size="9.1166" letter-spacing="4">G</tspan><tspan x="122.7" y="0" fill="#404040" font-family="'AGaramondPro-Regular'" font-size="9.1166" letter-spacing="4">R</tspan><tspan x="132.8" y="0" fill="#404040" font-family="'AGaramondPro-Regular'" font-size="9.1166" letter-spacing="4">O</tspan><tspan x="144.6" y="0" fill="#404040" font-family="'AGaramondPro-Regular'" font-size="9.1166" letter-spacing="4">U</tspan><tspan x="156" y="0" fill="#404040" font-family="'AGaramondPro-Regular'" font-size="9.1166">P</tspan></text>
<g>
	<defs>
		<rect id="SVGID_1_" width="207.4" height="111.8"/>
	</defs>
	<clipPath id="SVGID_4_">
		<use xlink:href="#SVGID_1_"  overflow="visible"/>
	</clipPath>
	<path clip-path="url(#SVGID_4_)" fill="#00C7EF" d="M59.9,29.3c8.2-15.8,24.8-26.7,43.8-26.7s35.6,10.9,43.8,26.7h2.9
		C142,12,124.2,0,103.7,0C83.2,0,65.4,12,57,29.3H59.9z"/>
	<path clip-path="url(#SVGID_4_)" fill="#26D5BA" d="M143.9,88.4c-8.9,12.6-23.6,20.8-40.2,20.8c-16.6,0-31.3-8.2-40.2-20.8h-3.1
		c9.3,14.1,25.2,23.4,43.3,23.4c18.1,0,34-9.3,43.3-23.4H143.9z"/>
	<rect x="45.2" y="86.4" clip-path="url(#SVGID_4_)" fill="#404040" width="117" height="2.4"/>
	<rect x="23.2" y="28.6" clip-path="url(#SVGID_4_)" fill="#404040" width="66.6" height="2.4"/>
	<rect x="117.6" y="28.6" clip-path="url(#SVGID_4_)" fill="#404040" width="66.6" height="2.4"/>
	<path clip-path="url(#SVGID_4_)" fill-rule="evenodd" clip-rule="evenodd" fill="#404040" d="M96.5,22.7c0-0.2,0-0.6,0-0.8
		c0.4,0.1,0.8,0.1,1.2,0.2c-0.2-0.1-0.6-0.2-0.9-0.4c-0.1-0.1-0.2-0.1-0.2-0.2c-0.1-0.2,0.1-0.4,0.3-0.4c0.2,0,0.6,0.1,1,0.2
		c-0.2,0-0.3-0.1-0.4-0.2c-0.2-0.1-0.5-0.1-0.6-0.2c-0.1-0.1-0.1-0.5,0-0.6c0.1-0.2,0.3-0.1,0.5,0c0.2,0.1,0.4,0.1,0.6,0.1
		c-0.2-0.2-0.7-0.3-0.9-0.4c0-0.3,0.1-0.8,0.5-0.7c0.3,0.1,0.7,0.5,1.1,0.5c-0.2-0.4-0.8-0.6-1.1-0.8c0.1-0.2,0.3-0.4,0.4-0.7
		c0.3,0.2,0.8,0.7,1.2,0.8c-0.2-0.4-0.6-0.7-0.9-1c0.2-0.2,0.4-0.3,0.5-0.5c0.2,0.3,0.4,0.9,0.8,1.1c0-0.4-0.3-0.9-0.5-1.3
		c0.2-0.1,0.4-0.2,0.6-0.3c0.2,0.4,0.3,1,0.7,1.3c0.1-0.4-0.2-1-0.3-1.4c0.4-0.1,0.7-0.1,1.1-0.2c0.1,0.5,0.1,1,0.3,1.5
		c0.1-0.5-0.1-1,0-1.4c0.2,0,0.5,0,0.7,0.1c0.2,0.1,0.2,0.2,0.2,0.4c0,0.4,0,0.7,0.1,1.1c0,0,0.1,0,0.1,0c0-0.3,0-0.8,0.1-1.1
		c0.1-0.2,0.2-0.2,0.4-0.1c0.1,0.1,0.4,0.1,0.5,0.2c0,0,0.1,1.4,0.1,1.5c0,0,0.1-1.3,0.2-1.3c0.2,0.1,0.4,0.3,0.6,0.4
		c0,0-0.3,1.1-0.2,1.1c0,0,0.5-0.9,0.5-0.9c0.1,0.1,0.3,0.3,0.5,0.4c0,0-0.4,0.8-0.3,0.8c0,0.1,0.5-0.6,0.6-0.6
		c0.1,0.1,0.2,0.4,0.2,0.5c0,0-0.6,0.6-0.5,0.6c0,0.1,0.7-0.4,0.7-0.3c0.4,0.7,1.1,1.4,2,1.8v-0.1c-0.5-0.9-1.2-1.5-0.8-2.8
		c1.4-1.4,3.4,0.1,4.1,1.6v0.3c-0.2-0.2-0.4-0.4-0.5-0.5h-0.1c0.1,0,0,1.4-0.1,1.6c-0.2,0.4-0.6,0.4-0.6-0.1
		c0.1-0.6,0.6-1.1,0.1-1.6c-0.1,0.1-0.3,0-0.4,0.1c-1.6,2.4,1.8,2.7,1.4,6.5c-0.3,2.6-2.9,2.2-3.7,3.4c-0.2,0.5,0.1,1.2,0.4,1.5
		c0.8,0.2,1.4,0.2,1.4,0.6c-0.2-0.1-0.5-0.3-0.8-0.3c0,0,0,0.1,0,0.1v0.4c-0.5-0.6-0.9-0.7-1.4-0.3c0.3-0.7,0.2-1.6-0.5-2.2
		c-0.5-0.1-1-0.1-1.4-0.2c-0.2,0.1-0.3,0.2-0.5,0.3c-0.3,1.8,0.5,1.2,1,2.1c-0.3-0.2-0.6-0.4-1-0.4c0.1,0.3,0.2,0.4,0.1,0.6
		c-0.3-0.8-0.6-1.1-1.3-0.6v-0.4c0.7-0.2,0.8-0.4,0.7-1.3c-0.1-0.3-0.1-0.4-0.4-0.5c-0.5-0.1-0.9,0.2-1.3,0.4
		c-0.4,0.2-0.8,0.4-1.3,0.4c0.1-0.2,0.3-0.3,0.3-0.5c-0.2,0.1-0.4,0.2-0.5,0.4c-0.3,0.2-0.5,0.1-0.9,0c0.3-0.4,0.6-0.6,0.9-1
		c-0.3,0.2-0.5,0.4-0.8,0.6c-0.1,0.1-0.3,0.3-0.3,0.3c-0.2,0.1-0.7-0.3-0.9-0.4c0.3-0.3,0.8-0.5,1-0.9c-0.3,0.1-0.6,0.3-0.9,0.5
		c-0.1,0-0.3,0.2-0.4,0.2c-0.2,0-0.7-0.5-0.8-0.6c0.4-0.4,1-0.6,1.4-1c-0.6,0.1-1.1,0.6-1.7,0.7c-0.2-0.2-0.5-0.5-0.6-0.7
		c0.3-0.3,0.8-0.4,1.1-0.5c0.3-0.1,0.5-0.2,0.8-0.3c0.2-0.1,0.5-0.1,0.4-0.3c-0.5,0-0.9,0.3-1.3,0.4c-0.2-0.3-0.4-0.5,0-0.7
		c0.3-0.1,0.5-0.2,0.7-0.4c-0.2,0-0.8,0.2-1,0.1c-0.3,0-0.2-0.3-0.3-0.5c0.3-0.2,0.7-0.3,1.1-0.4c-0.2,0.1-0.6,0.1-0.9,0.1
		c-0.5,0-0.4-0.4-0.4-0.8c0.4-0.1,0.8,0,1.1-0.2c-0.3-0.1-0.6,0-0.9-0.1c-0.3-0.1-0.4-0.5-0.2-0.8c0.1-0.3,0.4-0.2,0.6-0.2
		c0.2,0,0.5-0.1,0.7-0.1C97.4,22.7,97,22.7,96.5,22.7"/>
</g>
</svg>
