<?xml version="1.0" encoding="utf-8"?>
<!-- Generator: Adobe Illustrator 15.0.2, SVG Export Plug-In  -->
<!DOCTYPE svg PUBLIC "-//W3C//DTD SVG 1.1//EN" "http://www.w3.org/Graphics/SVG/1.1/DTD/svg11.dtd" [
	<!ENTITY ns_flows "http://ns.adobe.com/Flows/1.0/">
]>
<svg version="1.1"
	 xmlns="http://www.w3.org/2000/svg" xmlns:xlink="http://www.w3.org/1999/xlink" xmlns:a="http://ns.adobe.com/AdobeSVGViewerExtensions/3.0/"
	 x="0px" y="0px" width="208px" height="103px" viewBox="-0.6 -0.2 208 103" enable-background="new -0.6 -0.2 208 103"
	 xml:space="preserve">
<defs>
</defs>
<g>
	<defs>
		<rect id="SVGID_1_" width="207" height="102"/>
	</defs>
	<clipPath id="SVGID_2_">
		<use xlink:href="#SVGID_1_"  overflow="visible"/>
	</clipPath>
	<path clip-path="url(#SVGID_2_)" fill="#404040" d="M17.5,53c0,1.2,0.2,1.8,0.7,2c0.1,0.1,0.1,0.3,0,0.3c-0.3,0-0.9,0.1-1.4,0.3
		c-1.5,0.4-3.6,0.7-5.2,0.7c-3.5,0-6.6-1-8.9-3.2c-1.7-1.7-2.7-4-2.7-6.6c0-2.5,0.8-4.9,2.6-6.8c2-2,4.8-3.4,9.2-3.4
		c1.7,0,3.2,0.3,3.7,0.4c0.6,0.1,1.5,0.3,1.8,0.3c0,1,0.2,2.5,0.4,4.2c-0.1,0.2-0.6,0.3-0.8,0.1c-0.8-3.1-3-4.1-6-4.1
		c-5.6,0-8.1,4-8.1,8.3c0,5.5,2.9,9.9,8.7,9.9c1.8,0,2.9-0.4,3.2-0.9c0.1-0.2,0.3-0.7,0.3-1.6v-1.2c0-2.4-0.1-2.6-1.9-2.8L12,48.9
		c-0.2-0.1-0.2-0.6,0-0.7c0.8,0.1,2.4,0.1,4.2,0.1c1.1,0,2.1,0,3.1-0.1c0.2,0.1,0.2,0.5,0,0.7L18.8,49c-1.2,0.1-1.3,1-1.3,2.4V53z"
		/>
	<path clip-path="url(#SVGID_2_)" fill="#404040" d="M23.4,41.3c0-3-0.1-3.5-1.9-3.6l-0.7-0.1c-0.2-0.1-0.1-0.6,0.1-0.7
		c1.6,0.1,2.6,0.1,3.8,0.1c1.1,0,2.1,0,3.6-0.1c0.2,0.1,0.2,0.6,0.1,0.7l-0.7,0.1c-1.7,0.1-1.8,0.6-1.8,3.6v10
		c0,1.8,0.1,2.6,0.6,3.1c0.3,0.3,0.9,0.7,3.2,0.7c2.5,0,3.1-0.1,3.6-0.4c0.6-0.3,1.3-1.4,1.9-2.9c0.2-0.1,0.7,0,0.7,0.2
		c0,0.3-0.8,3.3-1.2,4C33.1,56,30.3,56,27.3,56h-2.7c-1.2,0-2.2,0-3.8,0.1c-0.2-0.1-0.2-0.5-0.1-0.7l0.9-0.1
		c1.7-0.2,1.7-0.6,1.7-3.6V41.3z"/>
	<path clip-path="url(#SVGID_2_)" fill="#404040" d="M36.1,46.7c0-5.8,4.4-10.2,10.4-10.2c6.7,0,10.1,4.8,10.1,9.9
		c0,5.8-4.5,10.1-10.1,10.1C40,56.5,36.1,51.9,36.1,46.7 M53.6,47.3c0-4.8-2.1-9.9-7.7-9.9c-3,0-7,2.1-7,8.4c0,4.3,2.1,9.8,7.8,9.8
		C50.3,55.6,53.6,53,53.6,47.3"/>
	<path clip-path="url(#SVGID_2_)" fill="#404040" d="M60.9,40.7c0-2.1-0.1-2.7-1.4-2.8l-0.9-0.1c-0.2-0.2-0.2-0.6,0-0.7
		c1.6-0.1,3.6-0.2,6.3-0.2c1.8,0,3.6,0.1,4.9,0.8c1.3,0.6,2.2,1.8,2.2,3.6c0,2.1-1.2,3.1-3,4c0,0.3,0.2,0.4,0.6,0.4
		c1.6,0.3,3.9,1.7,3.9,4.8c0,3.4-2.5,5.6-7.7,5.6c-0.8,0-2.3-0.1-3.5-0.1c-1.3,0-2.3,0.1-3.3,0.1c-0.2-0.1-0.2-0.5-0.1-0.7l0.5-0.1
		c1.5-0.3,1.6-0.6,1.6-3.6V40.7z M63.3,44.5c0,0.8,0,0.9,1.5,0.8c3-0.1,4.6-1,4.6-3.7c0-2.8-2.1-3.9-4.3-3.9c-0.6,0-1.1,0.1-1.3,0.2
		c-0.3,0.1-0.4,0.2-0.4,0.8V44.5z M63.3,51.2c0,1,0.1,2.5,0.6,3.1c0.6,0.7,1.4,0.8,2.3,0.8c2.6,0,4.6-1.2,4.6-4
		c0-2.3-1.2-4.9-5.8-4.9c-1.6,0-1.7,0.2-1.7,0.8V51.2z"/>
	<path clip-path="url(#SVGID_2_)" fill="#404040" d="M85.9,49.3c-0.2-0.6-0.3-0.7-1.2-0.7h-4.4c-0.7,0-0.9,0.1-1.1,0.7l-1,3
		c-0.4,1.3-0.6,2.1-0.6,2.4c0,0.3,0.1,0.5,0.8,0.6l1,0.1c0.2,0.1,0.2,0.6-0.1,0.7c-0.8-0.1-1.7-0.1-3-0.1c-1,0-2,0.1-2.8,0.1
		c-0.2-0.1-0.2-0.6-0.1-0.7l1-0.1c0.7-0.1,1.3-0.4,1.7-1.4c0.5-1.3,1.3-3.2,2.6-6.4l3-7.8c0.4-1,0.6-1.6,0.5-2
		c0.7-0.2,1.2-0.7,1.5-1.1c0.2,0,0.4,0.1,0.4,0.3c0.4,1.3,0.8,2.6,1.3,3.9l4,11.6c0.8,2.5,1.2,2.9,2.5,3.1l0.8,0.1
		c0.2,0.1,0.1,0.6,0,0.7C91.4,56,90.4,56,89.1,56c-1.4,0-2.5,0.1-3.3,0.1c-0.2-0.1-0.3-0.6-0.1-0.7l0.8-0.1c0.6-0.1,1-0.2,1-0.5
		c0-0.3-0.1-0.8-0.4-1.5L85.9,49.3z M80.1,46.7c-0.2,0.7-0.2,0.7,0.6,0.7h3.6c0.8,0,0.9-0.1,0.6-0.9l-1.6-4.7
		c-0.2-0.7-0.5-1.5-0.7-1.8h-0.1c-0.1,0.1-0.4,0.8-0.7,1.7L80.1,46.7z"/>
	<path clip-path="url(#SVGID_2_)" fill="#404040" d="M95.2,41.3c0-3-0.1-3.5-1.9-3.6l-0.7-0.1c-0.2-0.1-0.1-0.6,0.1-0.7
		c1.6,0.1,2.6,0.1,3.8,0.1c1.1,0,2.1,0,3.6-0.1c0.2,0.1,0.2,0.6,0.1,0.7l-0.7,0.1c-1.7,0.1-1.8,0.6-1.8,3.6v10
		c0,1.8,0.1,2.6,0.6,3.1c0.3,0.3,0.9,0.7,3.2,0.7c2.5,0,3.1-0.1,3.6-0.4c0.6-0.3,1.3-1.4,1.9-2.9c0.2-0.1,0.7,0,0.7,0.2
		c0,0.3-0.8,3.3-1.2,4c-1.5-0.1-4.3-0.1-7.2-0.1h-2.7c-1.2,0-2.2,0-3.8,0.1c-0.2-0.1-0.2-0.5-0.1-0.7l0.9-0.1
		c1.7-0.2,1.7-0.6,1.7-3.6V41.3z"/>
	<path clip-path="url(#SVGID_2_)" fill="#404040" d="M132.2,53c0,1.2,0.2,1.8,0.7,2c0.1,0.1,0.1,0.3,0,0.3c-0.3,0-0.9,0.1-1.4,0.3
		c-1.5,0.4-3.6,0.7-5.2,0.7c-3.5,0-6.6-1-8.9-3.2c-1.7-1.7-2.7-4-2.7-6.6c0-2.5,0.8-4.9,2.6-6.8c2-2,4.8-3.4,9.2-3.4
		c1.7,0,3.2,0.3,3.7,0.4c0.6,0.1,1.5,0.3,1.8,0.3c0,1,0.2,2.5,0.4,4.2c-0.1,0.2-0.6,0.3-0.8,0.1c-0.8-3.1-3-4.1-6-4.1
		c-5.6,0-8.1,4-8.1,8.3c0,5.5,2.9,9.9,8.7,9.9c1.8,0,2.9-0.4,3.2-0.9c0.1-0.2,0.3-0.7,0.3-1.6v-1.2c0-2.4-0.1-2.6-1.9-2.8l-1.3-0.1
		c-0.2-0.1-0.2-0.6,0-0.7c0.8,0.1,2.4,0.1,4.2,0.1c1.1,0,2.1,0,3.1-0.1c0.2,0.1,0.2,0.5,0,0.7l-0.5,0.1c-1.2,0.1-1.3,1-1.3,2.4V53z"
		/>
	<path clip-path="url(#SVGID_2_)" fill="#404040" d="M138.1,41.3c0-2.7-0.1-3.2-1.3-3.4l-0.9-0.1c-0.2-0.1-0.2-0.6,0-0.7
		c1.6-0.1,3.6-0.2,6.5-0.2c1.8,0,3.5,0.1,4.9,0.9c1.4,0.7,2.4,2,2.4,4c0,2.7-2.2,4.2-3.6,4.8c-0.1,0.2,0,0.5,0.1,0.7
		c2.3,3.7,3.9,6,5.9,7.7c0.5,0.4,1.2,0.8,2,0.8c0.1,0.1,0.2,0.3,0,0.4c-0.3,0.1-0.7,0.1-1.3,0.1c-2.5,0-4-0.7-6-3.6
		c-0.8-1.1-2-3.1-2.9-4.4c-0.4-0.6-0.9-0.9-2.1-0.9c-1.3,0-1.4,0-1.4,0.6v3.6c0,3,0.1,3.4,1.7,3.6l0.6,0.1c0.2,0.1,0.1,0.6-0.1,0.7
		c-1.3-0.1-2.3-0.1-3.5-0.1c-1.2,0-2.3,0-3.6,0.1c-0.2-0.1-0.2-0.5-0.1-0.7l0.7-0.1c1.7-0.2,1.7-0.6,1.7-3.6V41.3z M140.5,45.4
		c0,0.5,0,0.8,0.1,1c0.1,0.1,0.5,0.1,2,0.1c1,0,2.2-0.1,3-0.8c0.8-0.6,1.5-1.6,1.5-3.6c0-2.3-1.4-4.4-4.7-4.4
		c-1.8,0-1.9,0.1-1.9,0.9V45.4z"/>
	<path clip-path="url(#SVGID_2_)" fill="#404040" d="M156.2,41.3c0-3-0.1-3.4-1.8-3.6l-0.5-0.1c-0.2-0.1-0.1-0.6,0.1-0.7
		c1.3,0.1,2.2,0.1,3.4,0.1h5.5c1.9,0,3.6,0,3.9-0.1c0.2,0.5,0.4,2.6,0.5,3.8c-0.1,0.2-0.6,0.2-0.7,0.1c-0.4-1.4-0.7-2.4-2.2-2.7
		c-0.6-0.1-1.5-0.2-2.8-0.2h-2.1c-0.9,0-0.9,0.1-0.9,1.2v5.8c0,0.8,0.1,0.8,1,0.8h1.7c1.2,0,2.1-0.1,2.5-0.2c0.3-0.1,0.6-0.3,0.7-1
		l0.2-1.2c0.1-0.2,0.6-0.2,0.8,0c0,0.7-0.1,1.8-0.1,2.9c0,1,0.1,2.1,0.1,2.8c-0.1,0.2-0.6,0.2-0.8,0l-0.3-1.1
		c-0.1-0.5-0.3-1-0.9-1.1c-0.4-0.1-1.1-0.1-2.2-0.1h-1.7c-0.9,0-1,0-1,0.8v4.1c0,1.5,0.1,2.5,0.6,3c0.3,0.3,1,0.7,3.5,0.7
		c2.2,0,3.1-0.1,3.7-0.4c0.5-0.3,1.3-1.3,2.1-2.8c0.2-0.1,0.6-0.1,0.7,0.2c-0.2,1-0.9,3.2-1.3,4c-2.6-0.1-5.2-0.1-7.8-0.1h-2.6
		c-1.3,0-2.2,0-4,0.1c-0.2-0.1-0.2-0.5-0.1-0.7l1-0.1c1.7-0.1,1.8-0.6,1.8-3.6V41.3z"/>
	<path clip-path="url(#SVGID_2_)" fill="#404040" d="M172.5,41.3c0-3-0.1-3.4-1.8-3.6l-0.5-0.1c-0.2-0.1-0.1-0.6,0.1-0.7
		c1.3,0.1,2.2,0.1,3.4,0.1h5.5c1.9,0,3.6,0,3.9-0.1c0.2,0.5,0.4,2.6,0.5,3.8c-0.1,0.2-0.6,0.2-0.7,0.1c-0.4-1.4-0.7-2.4-2.2-2.7
		c-0.6-0.1-1.5-0.2-2.8-0.2h-2.1c-0.9,0-0.9,0.1-0.9,1.2v5.8c0,0.8,0.1,0.8,1,0.8h1.7c1.2,0,2.1-0.1,2.5-0.2c0.3-0.1,0.6-0.3,0.7-1
		l0.2-1.2c0.1-0.2,0.6-0.2,0.8,0c0,0.7-0.1,1.8-0.1,2.9c0,1,0.1,2.1,0.1,2.8c-0.1,0.2-0.6,0.2-0.8,0l-0.3-1.1
		c-0.1-0.5-0.3-1-0.9-1.1c-0.4-0.1-1.1-0.1-2.2-0.1h-1.7c-0.9,0-1,0-1,0.8v4.1c0,1.5,0.1,2.5,0.6,3c0.3,0.3,1,0.7,3.5,0.7
		c2.2,0,3.1-0.1,3.7-0.4c0.5-0.3,1.3-1.3,2.1-2.8c0.2-0.1,0.6-0.1,0.7,0.2c-0.2,1-0.9,3.2-1.3,4c-2.6-0.1-5.2-0.1-7.8-0.1h-2.6
		c-1.3,0-2.2,0-4,0.1c-0.2-0.1-0.2-0.5-0.1-0.7l1-0.1c1.7-0.1,1.8-0.6,1.8-3.6V41.3z"/>
	<path clip-path="url(#SVGID_2_)" fill="#404040" d="M204.4,51.1c0,0.9,0,4.3,0.1,5.1c-0.1,0.2-0.2,0.3-0.6,0.3
		c-0.3-0.5-1.2-1.5-3.7-4.4l-6.8-7.6c-0.8-0.9-2.8-3.3-3.4-3.9H190c-0.1,0.3-0.1,1-0.1,1.9v6.3c0,1.4,0,5.1,0.5,6
		c0.2,0.3,0.8,0.5,1.5,0.5l0.9,0.1c0.2,0.2,0.1,0.6-0.1,0.7c-1.3-0.1-2.3-0.1-3.4-0.1c-1.2,0-2,0-3,0.1c-0.2-0.1-0.2-0.5-0.1-0.7
		l0.8-0.1c0.7-0.1,1.1-0.3,1.3-0.6c0.4-1,0.4-4.6,0.4-5.9v-8.3c0-0.8,0-1.4-0.6-2.1c-0.4-0.4-1.1-0.6-1.8-0.7l-0.5-0.1
		c-0.2-0.2-0.2-0.6,0.1-0.7c1.2,0.1,2.8,0.1,3.3,0.1c0.5,0,1,0,1.3-0.1c0.6,1.5,4,5.3,5,6.4l2.8,3.1c2,2.2,3.4,3.8,4.8,5.2h0.1
		c0.1-0.1,0.1-0.6,0.1-1.2v-6.2c0-1.4,0-5.1-0.6-6c-0.2-0.3-0.6-0.4-1.8-0.6l-0.5-0.1c-0.2-0.2-0.2-0.6,0.1-0.7
		c1.3,0.1,2.3,0.1,3.4,0.1c1.3,0,2,0,3-0.1c0.2,0.1,0.2,0.5,0.1,0.7l-0.4,0.1c-0.9,0.1-1.5,0.4-1.6,0.6c-0.5,1-0.4,4.6-0.4,5.9V51.1
		z"/>
	<path clip-path="url(#SVGID_2_)" fill="#404040" d="M11.1,65.7c0-1,0-1.2-0.6-1.3l-0.2,0c-0.1,0,0-0.2,0-0.2c0.4,0,0.8,0,1.2,0h1.9
		c0.6,0,1.2,0,1.4,0c0.1,0.2,0.1,0.9,0.2,1.3c0,0.1-0.2,0.1-0.3,0c-0.2-0.5-0.2-0.8-0.8-0.9c-0.2,0-0.5-0.1-1-0.1h-0.7
		c-0.3,0-0.3,0-0.3,0.4v2c0,0.3,0,0.3,0.3,0.3h0.6c0.4,0,0.7,0,0.9-0.1c0.1,0,0.2-0.1,0.2-0.3l0.1-0.4c0.1-0.1,0.2-0.1,0.3,0
		c0,0.2,0,0.6,0,1c0,0.4,0,0.7,0,1c0,0.1-0.2,0.1-0.3,0L13.9,68c0-0.2-0.1-0.3-0.3-0.4c-0.1,0-0.4,0-0.8,0h-0.6
		c-0.3,0-0.3,0-0.3,0.3v1.4c0,0.5,0,0.9,0.2,1c0.1,0.1,0.3,0.2,1.2,0.2c0.8,0,1.1,0,1.3-0.2c0.2-0.1,0.5-0.4,0.7-1
		c0.1,0,0.2,0,0.3,0.1c-0.1,0.3-0.3,1.1-0.5,1.4c-0.9,0-1.8,0-2.7,0h-0.9c-0.4,0-0.8,0-1.4,0c-0.1,0-0.1-0.2,0-0.3l0.3,0
		c0.6,0,0.6-0.2,0.6-1.2V65.7z"/>
	<path clip-path="url(#SVGID_2_)" fill="#404040" d="M26.9,69.1c0,0.3,0,1.5,0,1.7c0,0.1-0.1,0.1-0.2,0.1c-0.1-0.2-0.4-0.5-1.3-1.5
		l-2.3-2.6c-0.3-0.3-1-1.1-1.2-1.3h0c0,0.1-0.1,0.3-0.1,0.6v2.2c0,0.5,0,1.8,0.2,2.1c0.1,0.1,0.3,0.2,0.5,0.2l0.3,0
		c0.1,0.1,0,0.2,0,0.3c-0.5,0-0.8,0-1.2,0c-0.4,0-0.7,0-1,0c-0.1,0-0.1-0.2,0-0.3l0.3,0c0.2,0,0.4-0.1,0.4-0.2
		c0.1-0.4,0.1-1.6,0.1-2.1v-2.9c0-0.3,0-0.5-0.2-0.7c-0.1-0.1-0.4-0.2-0.6-0.2l-0.2,0c-0.1-0.1-0.1-0.2,0-0.2c0.4,0,1,0,1.1,0
		c0.2,0,0.3,0,0.5,0c0.2,0.5,1.4,1.8,1.7,2.2l1,1.1c0.7,0.8,1.2,1.3,1.7,1.8h0c0,0,0-0.2,0-0.4v-2.1c0-0.5,0-1.8-0.2-2.1
		c-0.1-0.1-0.2-0.1-0.6-0.2l-0.2,0c-0.1-0.1-0.1-0.2,0-0.2c0.5,0,0.8,0,1.2,0c0.4,0,0.7,0,1,0c0.1,0,0.1,0.2,0,0.2l-0.1,0
		c-0.3,0-0.5,0.1-0.6,0.2c-0.2,0.4-0.2,1.6-0.2,2.1V69.1z"/>
	<path clip-path="url(#SVGID_2_)" fill="#404040" d="M33.9,65.7c0-1,0-1.2-0.6-1.3l-0.2,0c-0.1,0,0-0.2,0-0.2c0.4,0,0.8,0,1.2,0h1.9
		c0.6,0,1.2,0,1.4,0c0.1,0.2,0.1,0.9,0.2,1.3c0,0.1-0.2,0.1-0.3,0c-0.2-0.5-0.2-0.8-0.8-0.9c-0.2,0-0.5-0.1-1-0.1H35
		c-0.3,0-0.3,0-0.3,0.4v2c0,0.3,0,0.3,0.3,0.3h0.6c0.4,0,0.7,0,0.9-0.1c0.1,0,0.2-0.1,0.2-0.3l0.1-0.4c0.1-0.1,0.2-0.1,0.3,0
		c0,0.2,0,0.6,0,1c0,0.4,0,0.7,0,1c0,0.1-0.2,0.1-0.3,0L36.7,68c0-0.2-0.1-0.3-0.3-0.4c-0.1,0-0.4,0-0.8,0H35c-0.3,0-0.3,0-0.3,0.3
		v1.4c0,0.5,0,0.9,0.2,1c0.1,0.1,0.3,0.2,1.2,0.2c0.8,0,1.1,0,1.3-0.2c0.2-0.1,0.5-0.4,0.7-1c0.1,0,0.2,0,0.3,0.1
		c-0.1,0.3-0.3,1.1-0.5,1.4c-0.9,0-1.8,0-2.7,0h-0.9c-0.4,0-0.8,0-1.4,0c-0.1,0-0.1-0.2,0-0.3l0.3,0c0.6,0,0.6-0.2,0.6-1.2V65.7z"/>
	<path clip-path="url(#SVGID_2_)" fill="#404040" d="M44.3,65.7c0-0.9,0-1.1-0.4-1.2l-0.3,0c-0.1,0-0.1-0.2,0-0.3
		c0.6,0,1.3-0.1,2.2-0.1c0.6,0,1.2,0,1.7,0.3c0.5,0.2,0.8,0.7,0.8,1.4c0,0.9-0.8,1.5-1.3,1.7c-0.1,0.1,0,0.2,0.1,0.2
		c0.8,1.3,1.3,2.1,2,2.7c0.2,0.1,0.4,0.3,0.7,0.3c0.1,0,0.1,0.1,0,0.1c-0.1,0-0.3,0.1-0.4,0.1c-0.9,0-1.4-0.2-2.1-1.3
		c-0.3-0.4-0.7-1.1-1-1.5c-0.2-0.2-0.3-0.3-0.7-0.3c-0.5,0-0.5,0-0.5,0.2v1.3c0,1,0,1.2,0.6,1.2l0.2,0c0.1,0,0,0.2,0,0.3
		c-0.5,0-0.8,0-1.2,0c-0.4,0-0.8,0-1.3,0c-0.1,0-0.1-0.2,0-0.3l0.3,0c0.6-0.1,0.6-0.2,0.6-1.2V65.7z M45.1,67.1c0,0.2,0,0.3,0,0.3
		c0,0,0.2,0,0.7,0c0.4,0,0.7,0,1-0.3c0.3-0.2,0.5-0.6,0.5-1.2c0-0.8-0.5-1.5-1.6-1.5c-0.6,0-0.7,0-0.7,0.3V67.1z"/>
	<path clip-path="url(#SVGID_2_)" fill="#404040" d="M60.2,69.8c0,0.4,0.1,0.6,0.2,0.7c0,0,0,0.1,0,0.1c-0.1,0-0.3,0-0.5,0.1
		c-0.5,0.1-1.3,0.3-1.8,0.3c-1.2,0-2.3-0.3-3.1-1.1c-0.6-0.6-0.9-1.4-0.9-2.3c0-0.8,0.3-1.7,0.9-2.4c0.7-0.7,1.7-1.2,3.2-1.2
		c0.6,0,1.1,0.1,1.3,0.1c0.2,0,0.5,0.1,0.6,0.1c0,0.3,0.1,0.8,0.2,1.4c0,0.1-0.2,0.1-0.3,0c-0.3-1.1-1-1.4-2.1-1.4
		c-2,0-2.8,1.4-2.8,2.9c0,1.9,1,3.4,3,3.4c0.6,0,1-0.1,1.1-0.3c0.1-0.1,0.1-0.2,0.1-0.6v-0.4c0-0.8,0-0.9-0.7-1l-0.4-0.1
		c-0.1,0-0.1-0.2,0-0.2c0.3,0,0.8,0,1.4,0c0.4,0,0.7,0,1.1,0c0.1,0,0.1,0.2,0,0.2l-0.2,0c-0.4,0.1-0.4,0.3-0.4,0.8V69.8z"/>
	<path clip-path="url(#SVGID_2_)" fill="#404040" d="M69.1,69.3c0,1.1,0.1,1.2,0.6,1.3l0.4,0c0.1,0.1,0,0.2,0,0.3c-0.6,0-1,0-1.4,0
		c-0.4,0-0.8,0-1.3,0c-0.1,0-0.1-0.2,0-0.3l0.3,0c0.6-0.1,0.6-0.2,0.6-1.3v-0.5c0-0.5,0-0.7-0.3-1.2l-1.2-2.3
		c-0.3-0.7-0.5-0.7-0.8-0.8l-0.3-0.1c-0.1-0.1-0.1-0.2,0-0.2c0.3,0,0.7,0,1.2,0c0.5,0,0.8,0,1.1,0c0.1,0,0.1,0.2,0,0.2l-0.1,0
		c-0.4,0-0.4,0.1-0.4,0.2c0,0.1,0.3,0.7,0.3,0.8c0.4,0.7,0.7,1.5,1.1,2.2c0.3-0.5,0.6-1.1,0.9-1.7c0.3-0.5,0.7-1.2,0.7-1.3
		c0-0.1-0.2-0.1-0.4-0.2l-0.2,0c-0.1-0.1-0.1-0.2,0-0.2c0.4,0,0.7,0,1,0c0.3,0,0.6,0,0.9,0c0.1,0,0.1,0.2,0,0.2l-0.3,0.1
		c-0.5,0.1-0.8,0.7-1.3,1.6l-0.6,1.1c-0.4,0.8-0.5,0.8-0.5,1.6V69.3z"/>
	<path clip-path="url(#SVGID_2_)" fill="#404040" d="M84.3,65.7c0-1.1,0-1.2-0.6-1.3l-0.3,0c-0.1,0,0-0.2,0-0.2c0.5,0,0.8,0,1.3,0
		c0.4,0,0.7,0,1.2,0c0.1,0,0.1,0.2,0,0.2l-0.3,0c-0.6,0-0.6,0.2-0.6,1.3v3.6c0,1.1,0,1.2,0.6,1.3l0.3,0c0.1,0,0,0.2,0,0.3
		c-0.5,0-0.8,0-1.2,0c-0.4,0-0.8,0-1.3,0c-0.1,0-0.1-0.2,0-0.3l0.3,0c0.6-0.1,0.6-0.2,0.6-1.3V65.7z"/>
	<path clip-path="url(#SVGID_2_)" fill="#404040" d="M97.7,69.1c0,0.3,0,1.5,0,1.7c0,0.1-0.1,0.1-0.2,0.1c-0.1-0.2-0.4-0.5-1.3-1.5
		l-2.3-2.6c-0.3-0.3-1-1.1-1.2-1.3h0c0,0.1-0.1,0.3-0.1,0.6v2.2c0,0.5,0,1.8,0.2,2.1c0.1,0.1,0.3,0.2,0.5,0.2l0.3,0
		c0.1,0.1,0.1,0.2,0,0.3c-0.5,0-0.8,0-1.2,0c-0.4,0-0.7,0-1,0c-0.1,0-0.1-0.2,0-0.3l0.3,0c0.2,0,0.4-0.1,0.4-0.2
		c0.1-0.4,0.1-1.6,0.1-2.1v-2.9c0-0.3,0-0.5-0.2-0.7c-0.1-0.1-0.4-0.2-0.6-0.2l-0.2,0c-0.1-0.1-0.1-0.2,0-0.2c0.4,0,1,0,1.1,0
		c0.2,0,0.3,0,0.5,0c0.2,0.5,1.4,1.8,1.7,2.2l1,1.1c0.7,0.8,1.2,1.3,1.7,1.8h0c0,0,0-0.2,0-0.4v-2.1c0-0.5,0-1.8-0.2-2.1
		c-0.1-0.1-0.2-0.1-0.6-0.2l-0.2,0c-0.1-0.1-0.1-0.2,0-0.2c0.5,0,0.8,0,1.2,0c0.4,0,0.7,0,1,0c0.1,0,0.1,0.2,0,0.2l-0.1,0
		c-0.3,0-0.5,0.1-0.6,0.2c-0.2,0.4-0.2,1.6-0.2,2.1V69.1z"/>
	<path clip-path="url(#SVGID_2_)" fill="#404040" d="M104.4,65.2c-0.2-0.6-0.4-0.8-0.8-0.8l-0.2,0c-0.1-0.1-0.1-0.2,0-0.2
		c0.3,0,0.6,0,1,0c0.4,0,0.8,0,1.2,0c0.1,0,0.1,0.2,0,0.2l-0.2,0c-0.4,0-0.5,0.1-0.5,0.2c0,0.1,0.2,0.6,0.5,1.4
		c0.5,1.2,0.9,2.3,1.4,3.4c0.3-0.7,0.7-1.7,1-2.2c0.3-0.7,0.8-1.8,0.9-2.2c0.1-0.2,0.1-0.3,0.1-0.4c0-0.1-0.1-0.2-0.5-0.2l-0.2,0
		c-0.1-0.1-0.1-0.2,0-0.2c0.3,0,0.7,0,1,0c0.3,0,0.6,0,1,0c0.1,0,0.1,0.2,0,0.2l-0.3,0c-0.2,0-0.4,0.1-0.5,0.3
		c-0.3,0.5-0.7,1.3-1.1,2.3l-0.5,1.2c-0.4,0.9-0.9,2.1-1,2.6c0,0-0.1,0-0.1,0c0,0-0.1,0-0.2,0c-0.1-0.4-0.3-0.9-0.5-1.3L104.4,65.2z
		"/>
	<path clip-path="url(#SVGID_2_)" fill="#404040" d="M116,65.7c0-1,0-1.2-0.6-1.3l-0.2,0c-0.1,0,0-0.2,0-0.2c0.4,0,0.8,0,1.2,0h1.9
		c0.6,0,1.2,0,1.4,0c0.1,0.2,0.1,0.9,0.2,1.3c0,0.1-0.2,0.1-0.3,0c-0.2-0.5-0.2-0.8-0.8-0.9c-0.2,0-0.5-0.1-1-0.1h-0.7
		c-0.3,0-0.3,0-0.3,0.4v2c0,0.3,0,0.3,0.3,0.3h0.6c0.4,0,0.7,0,0.9-0.1c0.1,0,0.2-0.1,0.2-0.3l0.1-0.4c0.1-0.1,0.2-0.1,0.3,0
		c0,0.2,0,0.6,0,1c0,0.4,0,0.7,0,1c0,0.1-0.2,0.1-0.3,0l-0.1-0.4c0-0.2-0.1-0.3-0.3-0.4c-0.1,0-0.4,0-0.8,0h-0.6
		c-0.3,0-0.3,0-0.3,0.3v1.4c0,0.5,0,0.9,0.2,1c0.1,0.1,0.3,0.2,1.2,0.2c0.8,0,1.1,0,1.3-0.2c0.2-0.1,0.5-0.4,0.7-1
		c0.1,0,0.2,0,0.3,0.1c-0.1,0.3-0.3,1.1-0.5,1.4c-0.9,0-1.8,0-2.7,0h-0.9c-0.4,0-0.8,0-1.4,0c-0.1,0-0.1-0.2,0-0.3l0.3,0
		c0.6,0,0.6-0.2,0.6-1.2V65.7z"/>
	<path clip-path="url(#SVGID_2_)" fill="#404040" d="M127.3,70.9c-0.8,0-1.4-0.3-1.6-0.4c-0.1-0.2-0.3-0.9-0.3-1.4
		c0.1-0.1,0.2-0.1,0.2,0c0.2,0.5,0.6,1.5,1.7,1.5c0.8,0,1.3-0.5,1.3-1.1c0-0.4-0.1-0.9-0.8-1.4l-1-0.6c-0.5-0.3-1.1-0.9-1.1-1.7
		c0-0.9,0.7-1.7,2.1-1.7c0.3,0,0.7,0.1,0.9,0.1c0.1,0,0.3,0.1,0.4,0.1c0.1,0.2,0.2,0.8,0.2,1.2c0,0.1-0.2,0.1-0.3,0
		c-0.1-0.5-0.4-1.1-1.4-1.1c-1,0-1.2,0.6-1.2,1.1c0,0.6,0.5,1,0.9,1.2l0.8,0.5c0.6,0.4,1.3,1,1.3,1.9
		C129.5,70.2,128.6,70.9,127.3,70.9"/>
	<path clip-path="url(#SVGID_2_)" fill="#404040" d="M138.2,69.3c0,1,0,1.2,0.6,1.2l0.3,0c0.1,0,0,0.2,0,0.3c-0.6,0-0.9,0-1.3,0
		c-0.4,0-0.8,0-1.4,0c-0.1,0-0.1-0.2,0-0.3l0.4,0c0.6,0,0.6-0.2,0.6-1.2v-4.5c0-0.3,0-0.3-0.3-0.3h-0.6c-0.4,0-1,0-1.2,0.2
		c-0.2,0.2-0.3,0.4-0.5,0.7c-0.1,0.1-0.2,0-0.3-0.1c0.2-0.4,0.3-1.1,0.4-1.5c0,0,0.2,0,0.2,0c0.1,0.3,0.4,0.3,0.9,0.3h4.1
		c0.5,0,0.6,0,0.8-0.3c0,0,0.2,0,0.2,0c-0.1,0.4-0.2,1.2-0.2,1.5c0,0.1-0.2,0.1-0.3,0c0-0.3-0.1-0.6-0.3-0.7
		c-0.2-0.2-0.6-0.2-1.2-0.2h-0.7c-0.3,0-0.3,0-0.3,0.3V69.3z"/>
	<path clip-path="url(#SVGID_2_)" fill="#404040" d="M149.6,68.1c0.2,0.5,0.5,0.9,0.7,1.4h0c0.3-0.5,0.5-1,0.8-1.5l0.9-1.9
		c0.5-0.9,0.7-1.5,0.8-1.9c0.3,0,0.6,0,0.8,0c0.3,0,0.6,0,0.9,0c0.1,0,0.1,0.2,0,0.2l-0.2,0c-0.6,0.1-0.7,0.2-0.7,0.9
		c0,1.1,0,2.9,0.1,4.3c0,0.5,0,0.8,0.5,0.8l0.3,0c0.1,0.1,0.1,0.2,0,0.3c-0.4,0-0.8,0-1.2,0c-0.4,0-0.8,0-1.2,0
		c-0.1,0-0.1-0.2,0-0.3l0.3,0c0.5,0,0.5-0.2,0.5-0.8l0-4.2h0c-0.1,0.1-0.5,0.9-0.7,1.3l-0.9,1.7c-0.5,0.9-0.9,1.8-1.1,2.3
		c0,0-0.1,0-0.1,0c0,0-0.1,0-0.1,0c-0.2-0.5-0.7-1.5-0.9-2l-0.9-1.9c-0.2-0.5-0.4-1-0.6-1.4h0c0,0.6-0.1,1.2-0.1,1.8
		c0,0.6-0.1,1.5-0.1,2.3c0,0.7,0.1,0.9,0.5,0.9l0.4,0c0.1,0.1,0.1,0.2,0,0.3c-0.3,0-0.7,0-1.1,0c-0.3,0-0.7,0-1,0
		c-0.1,0-0.1-0.2,0-0.3l0.2,0c0.4-0.1,0.6-0.1,0.6-0.8c0.1-0.7,0.1-1.2,0.2-2.2c0.1-0.8,0.1-1.7,0.1-2.2c0-0.6-0.1-0.8-0.7-0.9
		l-0.2,0c-0.1-0.1,0-0.2,0-0.2c0.3,0,0.5,0,0.8,0c0.2,0,0.5,0,0.8,0c0,0.4,0.2,1,0.5,1.6L149.6,68.1z"/>
	<path clip-path="url(#SVGID_2_)" fill="#404040" d="M160.7,65.7c0-1,0-1.2-0.6-1.3l-0.2,0c-0.1,0,0-0.2,0-0.2c0.4,0,0.8,0,1.2,0
		h1.9c0.6,0,1.2,0,1.4,0c0.1,0.2,0.1,0.9,0.2,1.3c0,0.1-0.2,0.1-0.3,0c-0.2-0.5-0.2-0.8-0.8-0.9c-0.2,0-0.5-0.1-1-0.1h-0.7
		c-0.3,0-0.3,0-0.3,0.4v2c0,0.3,0,0.3,0.3,0.3h0.6c0.4,0,0.7,0,0.9-0.1c0.1,0,0.2-0.1,0.2-0.3l0.1-0.4c0-0.1,0.2-0.1,0.3,0
		c0,0.2,0,0.6,0,1c0,0.4,0,0.7,0,1c0,0.1-0.2,0.1-0.3,0l-0.1-0.4c0-0.2-0.1-0.3-0.3-0.4c-0.1,0-0.4,0-0.8,0h-0.6
		c-0.3,0-0.3,0-0.3,0.3v1.4c0,0.5,0,0.9,0.2,1c0.1,0.1,0.3,0.2,1.2,0.2c0.8,0,1.1,0,1.3-0.2c0.2-0.1,0.5-0.4,0.7-1
		c0.1,0,0.2,0,0.3,0.1c-0.1,0.3-0.3,1.1-0.5,1.4c-0.9,0-1.8,0-2.7,0h-0.9c-0.4,0-0.8,0-1.4,0c-0.1,0-0.1-0.2,0-0.3l0.3,0
		c0.6,0,0.6-0.2,0.6-1.2V65.7z"/>
	<path clip-path="url(#SVGID_2_)" fill="#404040" d="M176.5,69.1c0,0.3,0,1.5,0,1.7c0,0.1-0.1,0.1-0.2,0.1c-0.1-0.2-0.4-0.5-1.3-1.5
		l-2.3-2.6c-0.3-0.3-1-1.1-1.2-1.3h0c0,0.1-0.1,0.3-0.1,0.6v2.2c0,0.5,0,1.8,0.2,2.1c0.1,0.1,0.3,0.2,0.5,0.2l0.3,0
		c0.1,0.1,0.1,0.2,0,0.3c-0.5,0-0.8,0-1.2,0c-0.4,0-0.7,0-1,0c-0.1,0-0.1-0.2,0-0.3l0.3,0c0.2,0,0.4-0.1,0.4-0.2
		c0.1-0.4,0.1-1.6,0.1-2.1v-2.9c0-0.3,0-0.5-0.2-0.7c-0.1-0.1-0.4-0.2-0.6-0.2l-0.2,0c-0.1-0.1-0.1-0.2,0-0.2c0.4,0,1,0,1.1,0
		c0.2,0,0.3,0,0.5,0c0.2,0.5,1.4,1.8,1.7,2.2l1,1.1c0.7,0.8,1.2,1.3,1.7,1.8h0c0,0,0-0.2,0-0.4v-2.1c0-0.5,0-1.8-0.2-2.1
		c-0.1-0.1-0.2-0.1-0.6-0.2l-0.2,0c-0.1-0.1-0.1-0.2,0-0.2c0.5,0,0.8,0,1.2,0c0.4,0,0.7,0,1,0c0.1,0,0.1,0.2,0,0.2l-0.1,0
		c-0.3,0-0.5,0.1-0.6,0.2c-0.2,0.4-0.2,1.6-0.2,2.1V69.1z"/>
	<path clip-path="url(#SVGID_2_)" fill="#404040" d="M185.9,69.3c0,1,0,1.2,0.6,1.2l0.3,0c0.1,0,0,0.2,0,0.3c-0.6,0-0.9,0-1.3,0
		c-0.4,0-0.8,0-1.4,0c-0.1,0-0.1-0.2,0-0.3l0.4,0c0.6,0,0.6-0.2,0.6-1.2v-4.5c0-0.3,0-0.3-0.3-0.3h-0.6c-0.4,0-1,0-1.2,0.2
		c-0.2,0.2-0.3,0.4-0.5,0.7c-0.1,0.1-0.2,0-0.3-0.1c0.2-0.4,0.3-1.1,0.4-1.5c0,0,0.2,0,0.2,0c0.1,0.3,0.4,0.3,0.9,0.3h4.1
		c0.5,0,0.6,0,0.8-0.3c0,0,0.2,0,0.2,0c-0.1,0.4-0.2,1.2-0.2,1.5c0,0.1-0.2,0.1-0.3,0c0-0.3-0.1-0.6-0.3-0.7
		c-0.2-0.2-0.6-0.2-1.2-0.2h-0.7c-0.3,0-0.3,0-0.3,0.3V69.3z"/>
	<path clip-path="url(#SVGID_2_)" fill="#404040" d="M195.5,70.9c-0.8,0-1.4-0.3-1.6-0.4c-0.1-0.2-0.3-0.9-0.3-1.4
		c0.1-0.1,0.2-0.1,0.2,0c0.2,0.5,0.6,1.5,1.7,1.5c0.8,0,1.3-0.5,1.3-1.1c0-0.4-0.1-0.9-0.8-1.4l-1-0.6c-0.5-0.3-1.1-0.9-1.1-1.7
		c0-0.9,0.7-1.7,2.1-1.7c0.3,0,0.7,0.1,0.9,0.1c0.1,0,0.3,0.1,0.4,0.1c0.1,0.2,0.2,0.8,0.2,1.2c0,0.1-0.2,0.1-0.3,0
		c-0.1-0.5-0.4-1.1-1.4-1.1c-1,0-1.2,0.6-1.2,1.1c0,0.6,0.5,1,0.9,1.2l0.8,0.5c0.6,0.4,1.3,1,1.3,1.9
		C197.6,70.2,196.8,70.9,195.5,70.9"/>
	<path clip-path="url(#SVGID_2_)" fill="#00C7EF" d="M62.9,26.7c7.6-14.5,22.8-24.4,40.3-24.4s32.7,9.9,40.3,24.4h2.7
		C138.4,10.9,122.1,0,103.2,0C84.4,0,68,10.9,60.3,26.7H62.9z"/>
	<path clip-path="url(#SVGID_2_)" fill="#26D5BA" d="M140.2,80.7c-8.2,11.5-21.7,19-37,19c-15.3,0-28.8-7.5-37-19h-2.9
		c8.5,12.8,23.2,21.3,39.9,21.3c16.6,0,31.3-8.5,39.9-21.3H140.2z"/>
	<rect x="49.4" y="78.8" clip-path="url(#SVGID_2_)" fill="#404040" width="107.6" height="2.2"/>
	<rect x="29.2" y="26.1" clip-path="url(#SVGID_2_)" fill="#404040" width="65" height="2.2"/>
	<rect x="112.2" y="26.1" clip-path="url(#SVGID_2_)" fill="#404040" width="65" height="2.2"/>
	<path clip-path="url(#SVGID_2_)" fill="#404040" d="M101.9,25.8c0,0-0.3-0.2-0.5-0.8c0-0.1-4.5-2.5-4.3-5.4c0,0,0.1-1.2,1.4-2
		c0.5-0.3,0.3-1.2,0.4-1.3c0,0-0.3,0-0.5,0.7c0,0,0,0.3-0.2,0.5c-0.1,0.2-0.3,0.1-0.3-0.2c0-0.4,0.7-0.7,0.6-1
		c-0.1-0.3-0.9,0.5-0.9,0.5s0.4-0.7,0.8-0.9c0.4-0.2,0.3-0.3,0.4-0.4c0.1,0,0.1,0,0.2-0.1c0.3-0.1,0.4-0.9,1.5-0.6
		c0.9,0.3,1,1.7-0.2,2.4c-0.5,0.3-0.3,1.4-0.1,1.5c0.2,0.1,1.3-1.5,3.3-1.2c2,0.4,1.7,0.6,1.8,0.5c0.8-0.8,2.4-2.6,4.6-0.8
		c1.2,1,1.2,3.3-1,4.6l0.2,0.2c0,0-0.4,2.5-1.3,2c-0.7-0.4-1.4-1.1-1.6-1.2c0,0-0.2,0.1-0.2,0.2c0,0.1,1.2,0.9,1.2,1
		c0,0.1-0.3,0-0.4,0c0,0,0.4,0.2,0.3,0.3c-0.1,0-0.7-0.1-0.8-0.2c-0.1-0.1,1.1,0.9,1,0.9c-0.1,0.1-0.8-0.2-0.9-0.3
		c-0.1-0.1,0.6,0.7,0.4,0.8c-0.1,0.1-1.2-0.6-1.3-0.7c-0.1-0.1,0.3,0.6-0.1,0.9c-0.4,0.3-0.5,0.1-0.6,0.2c-0.1,0,0.3,1.4,0.3,1.4
		c0,0,0.4,0,0.4,0.1c0,0.1-0.1,0.1-0.3,0.1c-0.1,0-0.1,0.9-0.1,1.1c0,0.1,0.5,0.1,0.6,0.3c0,0.1,0,0.2-0.1,0.3c-0.1,0.1,0-0.2,0-0.2
		c-0.1,0-0.4-0.1-0.5,0c0,0.1-0.4,0.3-0.6,0.7c0,0.1,0-0.3,0.2-0.6c0.1-0.1-0.6,0.1-1,0.4c0,0.1,0-0.2,0.3-0.4
		c0.2-0.1,0.4-0.1,0.7-0.2c0.4-0.1-0.4-2.4-0.5-2.7c-0.1-0.2-1.3-0.2-1.4-0.1c-0.1,0.1-0.3,0.2-0.3,0.3c0,0-0.2,0.9-0.2,1
		c0,0.1,0.2,0.1,0.3,0.3c0,0.2-0.3,0.2-0.4,0.2c-0.1,0,0,0.6,0,0.6s0,0.3,0,0.4s0.1,0.2,0.2,0.3c0,0.1-0.2-0.1-0.2-0.1
		s0.1,0.3,0.1,0.4c-0.1,0.1,0-0.4-0.2-0.3c-0.1,0-0.7,0.2-0.8,0.6c0,0.1-0.1-0.3,0.3-0.6c0.2-0.1-0.7,0-1,0.3c0,0.1,0-0.3,0.3-0.4
		c0.2-0.1,0.8-0.1,0.9-0.3C102.2,27.8,101.9,25.8,101.9,25.8"/>
</g>
</svg>
