<?xml version="1.0" encoding="utf-8"?>
<!-- Generator: Adobe Illustrator 15.0.2, SVG Export Plug-In  -->
<!DOCTYPE svg PUBLIC "-//W3C//DTD SVG 1.1//EN" "http://www.w3.org/Graphics/SVG/1.1/DTD/svg11.dtd" [
	<!ENTITY ns_flows "http://ns.adobe.com/Flows/1.0/">
]>
<svg version="1.1"
	 xmlns="http://www.w3.org/2000/svg" xmlns:xlink="http://www.w3.org/1999/xlink" xmlns:a="http://ns.adobe.com/AdobeSVGViewerExtensions/3.0/"
	 x="0px" y="0px" width="42px" height="36px" viewBox="0 0 67 58" enable-background="new 0 0 67 58" xml:space="preserve">
<defs>
</defs>
<polygon fill="#00bde3" points="11.9,45.8 14,42.1 22.4,50 26.2,41.9 22.2,39.8 21,42.5 12.9,34.9 7.9,43.7 "/>
<polygon fill="#00bde3" points="24,36.1 28,38.2 30.3,33.2 26.3,31.1 "/>
<polygon fill="#00bde3" points="0,0.3 0,58.2 62.6,58.2 62.6,54.4 7,54.4 9.9,49.3 5.9,47.3 3.7,51.1 3.7,0.3 "/>
<g>
	<defs>
		<rect id="SVGID_1_" width="66.7" height="58.2"/>
	</defs>
	<clipPath id="SVGID_2_">
		<use xlink:href="#SVGID_1_"  overflow="visible"/>
	</clipPath>
	<path fill="#00bde3" clip-path="url(#SVGID_2_)" d="M66.6,16.8L64.2,0L47.6,4.8c-1.2,0.3-1.9,1.6-1.5,2.8c0.3,1.2,1.6,1.9,2.8,1.5l8.2-2.4
		l-15,23.5l-9.4-12.5l-4.6,9.7l4,2.1l1.5-3.1l8.9,11.7L61,9l1.2,8.5c0.2,1.1,1.1,1.9,2.2,1.9c0.1,0,0.2,0,0.3,0
		C66,19.1,66.8,18,66.6,16.8"/>
</g>
</svg>
