<?xml version="1.0" encoding="utf-8"?>
<!-- Generator: Adobe Illustrator 16.0.0, SVG Export Plug-In . SVG Version: 6.00 Build 0)  -->
<!DOCTYPE svg PUBLIC "-//W3C//DTD SVG 1.1//EN" "http://www.w3.org/Graphics/SVG/1.1/DTD/svg11.dtd">
<svg version="1.1" id="Your_Icon" xmlns="http://www.w3.org/2000/svg" xmlns:xlink="http://www.w3.org/1999/xlink" x="0px" y="0px"
	 width="42px" height="42px" viewBox="0 0 100 100" enable-background="new 0 0 100 100" xml:space="preserve">
<path fill="#00BFE5" d="M78.878,28.263l4.417-3.151l0.828,1.411l-4.23,2.959L78.878,28.263z M90.77,45.688l3.859-3.184l-0.832-1.408
	l-4.081,3.327L90.77,45.688z M24.857,33.772l-1.056,1.295l3.293,2.74l1.074-1.316L24.857,33.772z M75.729,30.733l-3.372,2.645
	l0.987,1.187l3.386-2.628L75.729,30.733z M84.38,50.96l3.304-2.726l-1.068-1.284l-3.32,2.707L84.38,50.96z M81.156,69.225
	c-1.332,2.184-3.781,2.146-5.094,1.419c-0.051-0.026-0.178-0.091-0.373-0.185c0.543,0.513,0.917,1.126,1.1,1.809
	c0.27,1.014,0.088,2.08-0.525,3.086c-1.277,2.095-3.539,2.272-5.104,1.548c-0.11-0.051-0.492-0.221-1.067-0.472
	c0.284,0.879,0.202,1.915-0.465,3.009c-1.114,1.83-3.014,1.955-4.319,1.553c-0.437-0.041-1.16-0.333-2.506-0.875
	c-1.361-0.546-3.281-1.336-5.539-2.267c-0.059-0.024-0.117-0.049-0.178-0.073c1.479,0.831,2.549,1.436,2.73,1.547
	c0.75,0.456,1.303,0.984,1.644,1.568c0.413,0.71,0.724,1.857-0.155,3.299c-0.34,0.558-1.164,1.561-2.684,1.561
	c-0.617,0-1.351-0.166-2.213-0.595c-0.16-0.079-1.014-0.457-2.307-1.03c-0.521-0.231-1.115-0.494-1.75-0.776
	c-0.042,0.099-0.085,0.2-0.124,0.294l-0.096,0.227l-0.205,0.136c-0.067,0.044-1.659,1.085-3.454,1.085
	c-1.506,0-3.434-0.705-4.326-3.945c-0.546,0.186-1.19,0.332-1.863,0.332c-1.461,0-3.316-0.67-4.24-3.664
	c-0.543,0.184-1.18,0.327-1.847,0.327c-1.526,0-3.483-0.729-4.358-4.079c-0.474,0.137-0.998,0.239-1.547,0.239
	c-1.6,0-3.675-0.793-4.48-4.572l-0.068-0.321l0.173-0.279c0.057-0.092,0.572-0.925,1.231-1.984
	c-1.166-2.233-1.593-4.296-1.706-5.859l-4.52-3.729l1.086-1.331l5.028,4.098l0.018,0.447c0.067,1.736,0.48,3.31,1.112,4.738
	c0.976-1.567,1.945-3.116,2.157-3.425c0.763-1.114,1.958-1.778,3.198-1.778c0.641,0,1.281,0.173,1.902,0.515
	c1.732,0.953,2.166,2.629,1.966,3.962c0.614-0.406,1.317-0.637,2.037-0.637c0.641,0,1.281,0.174,1.902,0.515
	c1.556,0.856,2.065,2.296,2.009,3.546c0.646-0.465,1.402-0.725,2.176-0.725c0.641,0,1.281,0.174,1.903,0.516
	c1.722,0.947,2.161,2.609,1.97,3.939c0.675-0.534,1.484-0.84,2.316-0.84c0.641,0,1.281,0.174,1.902,0.516
	c1.655,0.91,2.125,2.48,1.99,3.781c0.794,0.326,1.57,0.646,2.295,0.944c3.693,1.52,7.525,2.936,7.525,2.936
	c0.018,0.01,1.848,0.908,2.819-0.686c0.983-1.613-0.251-2.554-0.653-2.804c-0.52-0.317-7.678-3.672-12.066-5.713l0.67-1.491
	c0.606,0.265,14.854,6.462,15.666,6.838c0.884,0.411,2.207,0.416,3.02-0.915c0.374-0.616,0.492-1.244,0.341-1.814
	c-0.151-0.568-0.562-1.07-1.187-1.451c-0.42-0.256-9.535-5.481-14.297-8.209l0.75-1.453c1.596,0.737,15.613,7.215,16.379,7.638
	c0.584,0.323,2.062,0.544,2.904-0.839c1.005-1.648-0.341-2.783-0.621-2.994c-0.504-0.361-10.545-6.531-18.812-11.596
	c-5.143-1.482-9.666-5.65-10.242-6.196c-0.814-0.544-2.642-1.459-3.45-1.014c-0.834,0.462-2.355,1.051-3.827,1.621
	c-1.239,0.479-2.52,0.976-3.18,1.319c-1.728,0.899-5.937,0.952-7.154-1.339c-0.425-0.8-0.51-1.65-0.245-2.46
	c0.318-0.97,1.067-1.712,1.721-2.207l-3.78-3.144l1.09-1.336l4.29,3.522c2.27-1.22,11.782-6.331,13.594-7.235
	c2.383-1.19,6.629-0.181,7.105-0.062l0.137,0.034l7.34,4.862l5.482-4.301l0.975,1.171l-6.5,5.046l-7.963-5.259
	c-1.24-0.289-4.342-0.782-5.846-0.03c-1.997,0.999-13.94,7.423-14.061,7.487c-0.483,0.237-1.725,1.017-2.033,1.965
	c-0.127,0.391-0.084,0.766,0.136,1.179c0.62,1.166,3.731,1.292,4.955,0.656c0.74-0.386,2.005-0.875,3.344-1.394
	c1.42-0.551,2.889-1.12,3.625-1.527c1.93-1.07,4.891,0.904,5.223,1.133l0.104,0.084c0.064,0.062,6.57,6.268,12.523,6.313
	l-0.01,1.246c3.414,2.094,7.639,4.687,10.955,6.73c0.541-1.367,0.851-2.787,0.906-4.24l0.018-0.447l4.635-3.778l1.101,1.321
	l-4.142,3.417c-0.111,1.579-0.492,3.116-1.112,4.596c2.29,1.415,3.907,2.423,4.083,2.555C81.547,65.145,82.418,67.154,81.156,69.225
	z M33.082,70.936c0.801-1.885,2.233-5.24,2.519-5.816c0.297-0.598,0.451-2.086-0.969-2.865c-0.377-0.207-0.752-0.312-1.114-0.312
	c-0.824,0-1.495,0.551-1.848,1.067c-0.326,0.475-2.784,4.431-4.186,6.694c0.733,2.963,2.286,2.963,2.807,2.962
	c0.797,0,1.571-0.306,2.054-0.542C32.551,71.791,32.802,71.386,33.082,70.936z M41.507,68.959c0.296-0.598,0.45-2.084-0.97-2.864
	c-0.377-0.208-0.751-0.312-1.114-0.312c-0.823,0-1.495,0.552-1.848,1.067c-0.247,0.361-1.726,2.732-3.037,4.844
	c-0.18,0.422-0.348,0.818-0.493,1.16L33.95,73.08l-0.205,0.137c-0.014,0.01-0.107,0.067-0.242,0.145
	c-0.037,0.061-0.076,0.125-0.113,0.182c0.733,2.963,2.286,2.963,2.808,2.963c0.699,0,1.384-0.237,1.87-0.456
	c0.228-0.368,0.676-1.09,1.208-1.948C40.093,72.182,41.252,69.472,41.507,68.959z M47.595,72.295
	c0.296-0.598,0.45-2.084-0.969-2.865c-0.378-0.207-0.753-0.312-1.115-0.312c-0.825,0-1.495,0.552-1.848,1.068
	c-0.241,0.352-1.648,2.605-2.932,4.672c-0.289,0.679-0.56,1.317-0.779,1.836l-0.095,0.227l-0.206,0.136
	c-0.009,0.006-0.047,0.031-0.105,0.067c0.756,2.711,2.232,2.72,2.739,2.717c0.923,0,1.822-0.411,2.264-0.649
	c0.067-0.107,0.14-0.225,0.218-0.351C45.427,77.284,47.266,72.956,47.595,72.295z M53.783,75.909
	c0.296-0.597,0.45-2.084-0.969-2.864c-0.377-0.208-0.753-0.312-1.114-0.312c-0.823,0-1.495,0.551-1.848,1.067
	c-0.286,0.417-2.215,3.516-3.63,5.797c-0.063,0.151-0.125,0.297-0.183,0.433l-0.095,0.228l-0.206,0.136
	c0,0.001-0.012,0.007-0.014,0.009c-0.02,0.03-0.04,0.063-0.058,0.094c0.733,2.961,2.285,2.961,2.808,2.961
	c0.985,0,1.95-0.473,2.352-0.697C51.329,81.571,53.43,76.622,53.783,75.909z M54.543,78.224c-0.449,1.035-1.029,2.395-1.552,3.621
	c0.659,0.293,1.26,0.56,1.774,0.787c1.565,0.695,2.205,0.979,2.317,1.033c1.794,0.894,2.45,0.293,2.825-0.326
	c0.498-0.815,0.318-1.316,0.141-1.623c-0.203-0.348-0.567-0.683-1.082-0.996C58.74,80.581,56.917,79.555,54.543,78.224z
	 M12.485,48.465l-3.69-3.007l-0.832,1.408l3.483,2.874L12.485,48.465z M21.766,31.234l-3.836-3.149l-0.827,1.411l3.623,3.013
	L21.766,31.234z M17.836,55.011l1.071-1.312l-3.321-2.707l-1.054,1.293L17.836,55.011z"/>
</svg>
