<?xml version="1.0" encoding="utf-8"?>
<!-- Generator: Adobe Illustrator 15.0.2, SVG Export Plug-In  -->
<!DOCTYPE svg PUBLIC "-//W3C//DTD SVG 1.1//EN" "http://www.w3.org/Graphics/SVG/1.1/DTD/svg11.dtd" [
	<!ENTITY ns_flows "http://ns.adobe.com/Flows/1.0/">
]>
<svg version="1.1"
	 xmlns="http://www.w3.org/2000/svg" xmlns:xlink="http://www.w3.org/1999/xlink" xmlns:a="http://ns.adobe.com/AdobeSVGViewerExtensions/3.0/"
	 x="0px" y="0px" width="35px" height="46px" viewBox="0 0 30 39" enable-background="new 0 0 30 39" xml:space="preserve">
<defs>
</defs>
<g>
	<defs>
		<rect fill="#00bde3" id="SVGID_1_" width="29.6" height="39.4"/>
	</defs>
	<clipPath id="SVGID_2_">
		<use xlink:href="#SVGID_1_"  overflow="visible"/>
	</clipPath>
	<path fill="#00bde3" clip-path="url(#SVGID_2_)" d="M14.8,39.4l-7.5-5.9C2.7,29.9,0,24.4,0,18.5V5.7l0.6-0.1C2.1,5.4,4.5,5,6.9,4.2
		c3.2-1,5.7-2.2,7.4-3.8L14.8,0l0.5,0.4c1.7,1.5,4.1,2.8,7.4,3.8C25.1,5,27.5,5.4,29,5.6l0.6,0.1v12.8c0,5.9-2.7,11.3-7.3,15
		L14.8,39.4z M1.5,7v11.6c0,5.4,2.4,10.4,6.7,13.8l6.6,5.2l6.6-5.2c4.3-3.3,6.7-8.3,6.7-13.8V7c-1.6-0.3-3.7-0.7-5.9-1.3
		c-3.1-1-5.6-2.1-7.4-3.6C13,3.5,10.5,4.7,7.4,5.6C5.2,6.2,3,6.7,1.5,7"/>
	<rect fill="#00bde3" x="14.1" y="0.7" clip-path="url(#SVGID_2_)" width="1.5" height="37"/>
	<rect fill="#00bde3" x="0.7" y="18.5" clip-path="url(#SVGID_2_)" width="28.1" height="1.5"/>
	
		<rect fill="#00bde3" x="2.8" y="4.4" transform="matrix(-0.7071 -0.7071 0.7071 -0.7071 0.2041 16.751)" clip-path="url(#SVGID_2_)" width="1.5" height="7.9"/>
	
		<rect fill="#00bde3" x="6.7" y="-0.4" transform="matrix(-0.7261 -0.6876 0.6876 -0.7261 6.4199 21.0753)" clip-path="url(#SVGID_2_)" width="1.5" height="19.4"/>
	
		<rect fill="#00bde3" x="7.8" y="4.1" transform="matrix(-0.7071 -0.7071 0.7071 -0.7071 5.3763 28.1517)" clip-path="url(#SVGID_2_)" width="1.5" height="17.8"/>
	
		<rect fill="#00bde3" x="10" y="9.4" transform="matrix(-0.7078 -0.7064 0.7064 -0.7078 7.6149 33.5197)" clip-path="url(#SVGID_2_)" width="1.5" height="11.6"/>
	
		<rect fill="#00bde3" x="12.2" y="14.8" transform="matrix(-0.7071 -0.7071 0.7071 -0.7071 9.7576 38.9084)" clip-path="url(#SVGID_2_)" width="1.5" height="5.3"/>
	
		<rect fill="#00bde3" x="15.9" y="18.5" transform="matrix(-0.7071 -0.7071 0.7071 -0.7071 13.4612 47.8498)" clip-path="url(#SVGID_2_)" width="1.5" height="5.3"/>
	
		<rect fill="#00bde3" x="18.1" y="17.6" transform="matrix(-0.7074 -0.7068 0.7068 -0.7074 15.7611 53.1892)" clip-path="url(#SVGID_2_)" width="1.5" height="11.6"/>
	
		<rect fill="#00bde3" x="20.4" y="16.7" transform="matrix(-0.7071 -0.7071 0.7071 -0.7071 17.9704 58.5525)" clip-path="url(#SVGID_2_)" width="1.5" height="17.8"/>
	
		<rect fill="#00bde3" x="21.1" y="19.3" transform="matrix(-0.7078 -0.7064 0.7064 -0.7078 16.5856 65.4312)" clip-path="url(#SVGID_2_)" width="1.5" height="19.9"/>
</g>
</svg>
