<?xml version="1.0" encoding="utf-8"?>
<!-- Generator: Adobe Illustrator 15.0.2, SVG Export Plug-In  -->
<!DOCTYPE svg PUBLIC "-//W3C//DTD SVG 1.1//EN" "http://www.w3.org/Graphics/SVG/1.1/DTD/svg11.dtd" [
	<!ENTITY ns_flows "http://ns.adobe.com/Flows/1.0/">
]>
<svg version="1.1"
	 xmlns="http://www.w3.org/2000/svg" xmlns:xlink="http://www.w3.org/1999/xlink" xmlns:a="http://ns.adobe.com/AdobeSVGViewerExtensions/3.0/"
	 x="0px" y="0px" width="48px" height="40px" viewBox="0 0 64 54" enable-background="new 0 0 64 54" xml:space="preserve">
<defs>
</defs>
<g>
	<defs>
		<rect id="SVGID_1_" x="0" width="63.7" height="53.7"/>
	</defs>
	<clipPath id="SVGID_2_">
		<use xlink:href="#SVGID_1_"  overflow="visible"/>
	</clipPath>
	<path fill="#00bde3" clip-path="url(#SVGID_2_)" d="M55.4,33.6c-1.3-0.6-2.8,0-3.3,1.3c0,0.1,0,0.1-0.1,0.2c-0.3,0.7-0.6,1.3-0.9,1.9l4.6,2.1
		c0.3-0.7,0.7-1.4,1-2.1C57.3,35.6,56.7,34.1,55.4,33.6"/>
	<path fill="#00bde3" clip-path="url(#SVGID_2_)" d="M54.1,41.8l-4.7-2.1c-0.7,1-1.5,1.9-2.4,2.8l4.6,2.5C52.5,44,53.4,42.9,54.1,41.8"/>
	<path fill="#00bde3" clip-path="url(#SVGID_2_)" d="M37.3,47.9c-1.7,0.5-3.6,0.7-5.5,0.7c-9.5,0-17.6-6.1-20.5-14.5l1,1c0.5,0.5,1.3,0.8,2,0.7
		c0.2,0,0.5-0.1,0.7-0.2c0.1,0,0.2-0.1,0.3-0.2c0.5-0.3,0.9-0.8,1.1-1.4c0-0.1,0.1-0.2,0.1-0.3c0-0.1,0-0.2,0-0.4c0-0.1,0-0.2,0-0.3
		c-0.1-0.6-0.3-1.2-0.8-1.6l-5.4-5.4c-0.1-0.1-0.1-0.1-0.2-0.2c-0.5-0.6-1.3-1-2.1-0.9l0,0c-0.1,0-0.2,0-0.3,0H7.9
		c-0.1,0-0.1,0-0.2,0c0,0-0.1,0-0.1,0c-0.1,0-0.3,0.1-0.4,0.2c0,0,0,0-0.1,0c0,0-0.1,0.1-0.1,0.1c0,0,0,0-0.1,0c0,0-0.1,0.1-0.1,0.1
		c0,0,0,0-0.1,0c0,0-0.1,0.1-0.1,0.1c0,0,0,0,0,0c0,0.1-0.1,0.1-0.1,0.2l-5.6,5.6c-1.1,0.9-1.1,2.7-0.2,3.7c1,1,2.8,0.9,3.7-0.1
		l1.5-1.5c3,11.5,13.5,20,26,20c3.6,0,7-0.7,10.1-2L37.3,47.9z"/>
	<path fill="#00bde3" clip-path="url(#SVGID_2_)" d="M49.2,47.3l-4.8-2.7c-1.1,0.8-2.3,1.5-3.6,2.1l4.3,3.5C46.6,49.3,48,48.4,49.2,47.3"/>
	<path fill="#00bde3" clip-path="url(#SVGID_2_)" d="M18.9,3.3c-1.5,0.8-2.9,1.8-4.2,2.8l4.8,2.7c1.1-0.8,2.3-1.4,3.6-2L18.9,3.3z"/>
	<path fill="#00bde3" clip-path="url(#SVGID_2_)" d="M12.4,8.4c-0.9,1-1.8,2-2.6,3.1l4.7,2.1c0.7-1,1.5-1.9,2.4-2.7L12.4,8.4z"/>
	<path fill="#00bde3" clip-path="url(#SVGID_2_)" d="M8.1,14.3c-0.4,0.8-0.8,1.6-1.2,2.5c-0.6,1.3,0,2.8,1.3,3.4c1.3,0.6,2.8,0,3.4-1.3
		c0-0.1,0-0.1,0.1-0.2c0.3-0.8,0.7-1.6,1.1-2.3L8.1,14.3z"/>
	<path fill="#00bde3" clip-path="url(#SVGID_2_)" d="M63,18.5c-1-1-2.8-0.9-3.7,0.1l-1.5,1.5C54.8,8.5,44.3,0,31.9,0v0c-3.4,0-6.7,0.7-9.8,1.8
		l4.7,3.8c1.6-0.4,3.3-0.6,5.1-0.6c9.5,0,17.5,6.1,20.5,14.5l-1-1c-0.7-0.7-1.9-1-2.8-0.6c-0.3,0.1-0.7,0.4-0.9,0.6
		c-0.1,0.1-0.2,0.2-0.2,0.3c-0.2,0.3-0.4,0.6-0.4,1c0,0.1,0,0.2,0,0.4c0,0.1,0,0.2,0,0.3c0.1,0.6,0.3,1.2,0.8,1.6l5.4,5.4
		c0,0.1,0.1,0.1,0.2,0.2c0.6,0.7,1.5,1.1,2.4,0.9h0.1c0.1,0,0.1,0,0.2,0c0,0,0.1,0,0.1,0c0.1,0,0.3-0.1,0.4-0.2c0,0,0,0,0.1,0
		c0,0,0.1-0.1,0.1-0.1c0,0,0,0,0.1,0c0,0,0.1-0.1,0.1-0.1c0,0,0,0,0.1,0c0,0,0.1-0.1,0.1-0.1c0,0,0,0,0,0c0-0.1,0.1-0.1,0.1-0.2
		l5.6-5.6C63.9,21.2,64,19.4,63,18.5"/>
</g>
</svg>
