<?xml version="1.0" encoding="utf-8"?>
<!-- Generator: Adobe Illustrator 15.0.2, SVG Export Plug-In  -->
<!DOCTYPE svg PUBLIC "-//W3C//DTD SVG 1.1//EN" "http://www.w3.org/Graphics/SVG/1.1/DTD/svg11.dtd" [
	<!ENTITY ns_flows "http://ns.adobe.com/Flows/1.0/">
]>
<svg version="1.1"
	 xmlns="http://www.w3.org/2000/svg" xmlns:xlink="http://www.w3.org/1999/xlink" xmlns:a="http://ns.adobe.com/AdobeSVGViewerExtensions/3.0/"
	 x="0px" y="0px" width="55px" height="32px" viewBox="0 0 74 45" enable-background="new 0 0 74 45" xml:space="preserve">
<defs>
</defs>
<polygon fill="#00bde3" points="5.5,10.5 3.7,13.4 5.5,14.7 7.3,11.8 "/>
<polygon fill="none" stroke="#00bde3" stroke-miterlimit="10" points="5.5,10.5 3.7,13.4 5.5,14.7 7.3,11.8 "/>
<polygon fill="#00bde3" points="68.5,7.5 66.4,8.4 67.6,11.6 69.7,10.7 "/>
<polygon fill="none" stroke="#00bde3" stroke-miterlimit="10" points="68.5,7.5 66.4,8.4 67.6,11.6 69.7,10.7 "/>
<polygon fill="#00bde3" points="70.5,13.2 68.5,14 69.7,17.2 71.7,16.4 "/>
<polygon fill="none" stroke="#00bde3" stroke-miterlimit="10" points="70.5,13.2 68.5,14 69.7,17.2 71.7,16.4 "/>
<polygon fill="#00bde3" points="8.9,5.5 7,8.4 8.8,9.6 10.7,6.8 "/>
<polygon fill="none" stroke="#00bde3" stroke-miterlimit="10" points="8.9,5.5 7,8.4 8.8,9.6 10.7,6.8 "/>
<g>
	<defs>
		<rect id="SVGID_1_" width="74.2" height="45"/>
	</defs>
	<clipPath id="SVGID_2_">
		<use xlink:href="#SVGID_1_"  overflow="visible"/>
	</clipPath>
	<path fill="#00bde3" clip-path="url(#SVGID_2_)" d="M72.6,18.8l-2,0.8l0.7,1.8l-11.8,5.9l-8.3-8.3c-0.1-0.1-0.3-0.2-0.5-0.3
		c-0.1,0-8.3-2.5-9.5-8.9c-0.1-0.5-0.6-0.9-1.1-0.9c0,0-0.1,0-0.1,0l-4,0.4c-0.2,0-0.4,0.1-0.6,0.3c-1,0.9-4.1,3.1-6.4,3.1
		c-0.8,0-1.3-0.2-1.8-0.7c-0.1-0.2-0.4-1.3,1.7-3.5C32.7,4.7,34.3,4,34.3,4c0,0,0,0,0.1,0c0,0,2.1-0.9,4.2-0.9c0.3,0,0.7,0,1,0.1
		C41.3,3.5,48,7,52,9.2c0.3,0.2,0.6,0.2,0.9,0.1l12-4.8l0.5,1.4l2.1-0.9l-0.8-2.2c-0.1-0.3-0.3-0.5-0.5-0.7C66,2,65.7,2,65.4,2.1
		l-12.7,5C50.6,5.9,42.4,1.4,39.9,1c-0.4-0.1-0.9-0.1-1.3-0.1c-2.2,0-4.3,0.8-4.9,1C32.3,2,25.4,2.9,20.7,5.3
		c-4.1-2.1-7.3-4.5-7.3-4.5c-0.2-0.2-0.6-0.3-0.9-0.2C12.2,0.6,12,0.7,11.8,1l-1.5,2.3l1.8,1.3L13,3.2c1.4,1,4.1,2.7,7.2,4.3
		c0.3,0.2,0.7,0.2,1,0c2.4-1.3,5.8-2.2,8.4-2.7c-0.7,0.6-1.5,1.4-2.3,2.3c-3.6,3.8-2,6.1-1.8,6.4c0.9,1,2.1,1.6,3.5,1.6
		c3.1,0,6.6-2.6,7.5-3.5l2.7-0.3c1.8,6.3,9,9,10.5,9.5l8.7,8.7c0.1,0,0.1,0.1,0.2,0.1c0,0.8-0.3,1.5-0.7,1.9
		c-0.6,0.6-1.7,0.7-2.3,0.6l-8.5-7.7c-0.5-0.4-1.2-0.4-1.6,0.1c-0.4,0.5-0.4,1.2,0.1,1.6l8.2,7.4c-0.1,0.9-0.3,1.7-0.9,2.2
		c-0.7,0.6-1.7,0.8-2.3,0.8l-8-7.6c-0.4-0.4-1.1-0.4-1.6,0c-0.4,0.4-0.4,1.1,0,1.6l7.7,7.4c-0.2,0.8-0.5,1.4-1,1.8
		c-0.5,0.4-1.2,0.5-1.7,0.5c0,0,0-0.1-0.1-0.1l-6.9-6.6c-0.4-0.4-1.1-0.4-1.6,0c-0.4,0.4-0.4,1.1,0,1.6l6,5.7l0,0.1
		c-0.2,1-0.6,1.2-0.8,1.2c-0.9,0.4-2.4-0.3-2.9-0.6l-3.5-2.4l0.3-3.1l0-0.2c-0.7-2.5-2.2-3.5-3.3-3.8c-1.3-2.6-3.1-3-4.1-3
		c-0.3,0-0.6,0-0.8,0.1c-0.7-2.4-2.2-2.8-3.2-2.8c-1.1,0-2.1,0.6-2.9,1.1c-1-1.1-2.1-1.7-3.2-1.7c-1.2,0-2.3,0.6-3.2,1.9l-13-9.3
		L4,16.8l-1.8-1.3l-1.5,2.3c-0.3,0.5-0.2,1.2,0.3,1.5l14,10c-0.5,1.1-0.5,2.3-0.1,3.3c0.8,1.8,2.7,2.8,3.7,3.2
		c0.8,3.2,2.8,3.7,4,3.7c0.4,0,0.8-0.1,1.1-0.1c1.1,2.5,2.7,3,3.8,3h0c0.6,0,1.1-0.2,1.6-0.3c0.7,0.8,1.9,1.8,3.7,2
		c0.2,0,0.4,0,0.5,0c1.1,0,1.8-0.5,2.1-0.8c0.5-0.5,0.7-1.2,0.8-1.7l2.5,1.7l0.1,0c0.2,0.1,1.8,1,3.4,1c0.5,0,1-0.1,1.5-0.3
		c0.6-0.2,1.3-0.8,1.8-1.8c0.9,0,2.4-0.1,3.6-0.9c0.9-0.6,1.6-1.6,1.9-2.8c0.9-0.1,2.4-0.4,3.5-1.4c0.8-0.8,1.3-1.7,1.5-3
		c1,0,2.4-0.2,3.4-1.2c1-0.9,1.5-2.3,1.4-4l12.2-6.1c0.5-0.2,0.7-0.8,0.6-1.3L72.6,18.8z M18.5,33.3c-0.6-0.4-1.3-0.9-1.6-1.5
		c-0.2-0.5-0.2-1,0.1-1.6c0.7-1.5,1.5-2.3,2.2-2.3c0.4,0,0.9,0.3,1.5,0.9C19.9,29.8,18.8,31.5,18.5,33.3 M23.2,37.3
		c-0.2,0-0.4,0.1-0.6,0.1c-0.4,0-1.5,0-1.9-2.5l0,0c-0.3-1.7,0.7-3.4,1.6-4.5l0.8-0.7c0.5-0.5,1.5-1.2,2.3-1.2c0.6,0,1,0.8,1.2,1.7
		C25.5,31.3,23.3,34.3,23.2,37.3 M28.2,40.1c-0.2,0.1-0.4,0.1-0.6,0.1c-1,0-1.7-1.3-2.1-2.4l0,0c-0.4-2.2,1.8-5.3,2.9-6.5
		c0.2-0.1,0.5-0.2,0.9-0.2c0.7,0,1.3,0.4,1.7,1.1c-0.5,0.2-0.9,0.6-1.3,1.1C28.4,34.9,27.9,37.5,28.2,40.1 M34.2,41L34.2,41
		c0,0.2-0.1,0.7-0.3,0.9c0,0-0.2,0.2-0.5,0.2c-0.1,0-0.2,0-0.3,0c-1.5-0.2-2.4-1.4-2.7-1.7c-0.4-2,0-4.4,1-5.5
		c0.4-0.4,0.8-0.7,1.2-0.7c0.1,0,1.3,0.1,1.9,2.1L34.2,41L34.2,41z"/>
	<path clip-path="url(#SVGID_2_)" fill="none" stroke="#00bde3" stroke-miterlimit="10" d="M72.6,18.8l-2,0.8l0.7,1.8l-11.8,5.9
		l-8.3-8.3c-0.1-0.1-0.3-0.2-0.5-0.3c-0.1,0-8.3-2.5-9.5-8.9c-0.1-0.5-0.6-0.9-1.1-0.9c0,0-0.1,0-0.1,0l-4,0.4
		c-0.2,0-0.4,0.1-0.6,0.3c-1,0.9-4.1,3.1-6.4,3.1c-0.8,0-1.3-0.2-1.8-0.7c-0.1-0.2-0.4-1.3,1.7-3.5C32.7,4.7,34.3,4,34.3,4
		c0,0,0,0,0.1,0c0,0,2.1-0.9,4.2-0.9c0.3,0,0.7,0,1,0.1C41.3,3.5,48,7,52,9.2c0.3,0.2,0.6,0.2,0.9,0.1l12-4.8l0.5,1.4l2.1-0.9
		l-0.8-2.2c-0.1-0.3-0.3-0.5-0.5-0.7C66,2,65.7,2,65.4,2.1l-12.7,5C50.6,5.9,42.4,1.4,39.9,1c-0.4-0.1-0.9-0.1-1.3-0.1
		c-2.2,0-4.3,0.8-4.9,1C32.3,2,25.4,2.9,20.7,5.3c-4.1-2.1-7.3-4.5-7.3-4.5c-0.2-0.2-0.6-0.3-0.9-0.2C12.2,0.6,12,0.7,11.8,1
		l-1.5,2.3l1.8,1.3L13,3.2c1.4,1,4.1,2.7,7.2,4.3c0.3,0.2,0.7,0.2,1,0c2.4-1.3,5.8-2.2,8.4-2.7c-0.7,0.6-1.5,1.4-2.3,2.3
		c-3.6,3.8-2,6.1-1.8,6.4c0.9,1,2.1,1.6,3.5,1.6c3.1,0,6.6-2.6,7.5-3.5l2.7-0.3c1.8,6.3,9,9,10.5,9.5l8.7,8.7c0.1,0,0.1,0.1,0.2,0.1
		c0,0.8-0.3,1.5-0.7,1.9c-0.6,0.6-1.7,0.7-2.3,0.6l-8.5-7.7c-0.5-0.4-1.2-0.4-1.6,0.1c-0.4,0.5-0.4,1.2,0.1,1.6l8.2,7.4
		c-0.1,0.9-0.3,1.7-0.9,2.2c-0.7,0.6-1.7,0.8-2.3,0.8l-8-7.6c-0.4-0.4-1.1-0.4-1.6,0c-0.4,0.4-0.4,1.1,0,1.6l7.7,7.4
		c-0.2,0.8-0.5,1.4-1,1.8c-0.5,0.4-1.2,0.5-1.7,0.5c0,0,0-0.1-0.1-0.1l-6.9-6.6c-0.4-0.4-1.1-0.4-1.6,0c-0.4,0.4-0.4,1.1,0,1.6
		l6,5.7l0,0.1c-0.2,1-0.6,1.2-0.8,1.2c-0.9,0.4-2.4-0.3-2.9-0.6l-3.5-2.4l0.3-3.1l0-0.2c-0.7-2.5-2.2-3.5-3.3-3.8
		c-1.3-2.6-3.1-3-4.1-3c-0.3,0-0.6,0-0.8,0.1c-0.7-2.4-2.2-2.8-3.2-2.8c-1.1,0-2.1,0.6-2.9,1.1c-1-1.1-2.1-1.7-3.2-1.7
		c-1.2,0-2.3,0.6-3.2,1.9l-13-9.3L4,16.8l-1.8-1.3l-1.5,2.3c-0.3,0.5-0.2,1.2,0.3,1.5l14,10c-0.5,1.1-0.5,2.3-0.1,3.3
		c0.8,1.8,2.7,2.8,3.7,3.2c0.8,3.2,2.8,3.7,4,3.7c0.4,0,0.8-0.1,1.1-0.1c1.1,2.5,2.7,3,3.8,3h0c0.6,0,1.1-0.2,1.6-0.3
		c0.7,0.8,1.9,1.8,3.7,2c0.2,0,0.4,0,0.5,0c1.1,0,1.8-0.5,2.1-0.8c0.5-0.5,0.7-1.2,0.8-1.7l2.5,1.7l0.1,0c0.2,0.1,1.8,1,3.4,1
		c0.5,0,1-0.1,1.5-0.3c0.6-0.2,1.3-0.8,1.8-1.8c0.9,0,2.4-0.1,3.6-0.9c0.9-0.6,1.6-1.6,1.9-2.8c0.9-0.1,2.4-0.4,3.5-1.4
		c0.8-0.8,1.3-1.7,1.5-3c1,0,2.4-0.2,3.4-1.2c1-0.9,1.5-2.3,1.4-4l12.2-6.1c0.5-0.2,0.7-0.8,0.6-1.3L72.6,18.8z M18.5,33.3
		c-0.6-0.4-1.3-0.9-1.6-1.5c-0.2-0.5-0.2-1,0.1-1.6c0.7-1.5,1.5-2.3,2.2-2.3c0.4,0,0.9,0.3,1.5,0.9C19.9,29.8,18.8,31.5,18.5,33.3z
		 M23.2,37.3c-0.2,0-0.4,0.1-0.6,0.1c-0.4,0-1.5,0-1.9-2.5l0,0c-0.3-1.7,0.7-3.4,1.6-4.5l0.8-0.7c0.5-0.5,1.5-1.2,2.3-1.2
		c0.6,0,1,0.8,1.2,1.7C25.5,31.3,23.3,34.3,23.2,37.3z M28.2,40.1c-0.2,0.1-0.4,0.1-0.6,0.1c-1,0-1.7-1.3-2.1-2.4l0,0
		c-0.4-2.2,1.8-5.3,2.9-6.5c0.2-0.1,0.5-0.2,0.9-0.2c0.7,0,1.3,0.4,1.7,1.1c-0.5,0.2-0.9,0.6-1.3,1.1C28.4,34.9,27.9,37.5,28.2,40.1
		z M34.2,41L34.2,41c0,0.2-0.1,0.7-0.3,0.9c0,0-0.2,0.2-0.5,0.2c-0.1,0-0.2,0-0.3,0c-1.5-0.2-2.4-1.4-2.7-1.7c-0.4-2,0-4.4,1-5.5
		c0.4-0.4,0.8-0.7,1.2-0.7c0.1,0,1.3,0.1,1.9,2.1L34.2,41L34.2,41z"/>
</g>
</svg>
