<?xml version="1.0" encoding="utf-8"?>
<!-- Generator: Adobe Illustrator 15.0.0, SVG Export Plug-In . SVG Version: 6.00 Build 0)  -->
<!DOCTYPE svg PUBLIC "-//W3C//DTD SVG 1.1//EN" "http://www.w3.org/Graphics/SVG/1.1/DTD/svg11.dtd">
<svg version="1.1" id="Layer_1" xmlns="http://www.w3.org/2000/svg" xmlns:xlink="http://www.w3.org/1999/xlink" x="0px" y="0px"
	 width="164.787px" height="81.859px" viewBox="0 0 164.787 81.859" enable-background="new 0 0 164.787 81.859"
	 xml:space="preserve">
<g>
	<defs>
		<rect id="SVGID_1_" width="164.787" height="81.859"/>
	</defs>
	<clipPath id="SVGID_2_">
		<use xlink:href="#SVGID_1_"  overflow="visible"/>
	</clipPath>
	<path clip-path="url(#SVGID_2_)" fill="#404040" d="M13.953,42.573c0,0.927,0.139,1.483,0.556,1.646
		c0.069,0.068,0.069,0.208-0.023,0.277c-0.278,0-0.696,0.093-1.136,0.209c-1.228,0.324-2.897,0.603-4.148,0.603
		c-2.759,0-5.285-0.765-7.07-2.573C0.742,41.344,0,39.513,0,37.474c0-1.97,0.649-3.964,2.086-5.493
		c1.553-1.623,3.847-2.712,7.347-2.712c1.321,0,2.55,0.255,2.944,0.347c0.44,0.093,1.159,0.255,1.437,0.209
		c0,0.765,0.139,1.97,0.347,3.361c-0.069,0.185-0.486,0.209-0.625,0.07c-0.649-2.504-2.388-3.292-4.752-3.292
		c-4.497,0-6.467,3.199-6.467,6.675c0,4.451,2.295,7.951,6.954,7.951c1.437,0,2.294-0.302,2.55-0.695
		c0.115-0.162,0.231-0.579,0.231-1.321v-0.927c0-1.947-0.069-2.086-1.506-2.248l-1.02-0.116c-0.186-0.093-0.162-0.51,0-0.58
		c0.672,0.047,1.947,0.07,3.314,0.07c0.905,0,1.692-0.023,2.457-0.07c0.162,0.093,0.186,0.441,0.023,0.58l-0.37,0.046
		c-0.974,0.116-0.997,0.765-0.997,1.947V42.573z"/>
	<path clip-path="url(#SVGID_2_)" fill="#404040" d="M18.639,33.116c0-2.434-0.046-2.805-1.506-2.92l-0.58-0.047
		c-0.139-0.093-0.093-0.51,0.046-0.579c1.298,0.046,2.086,0.069,3.014,0.069c0.903,0,1.692-0.023,2.85-0.069
		c0.139,0.069,0.186,0.486,0.047,0.579l-0.557,0.047c-1.367,0.115-1.414,0.486-1.414,2.92v8.066c0,1.46,0.07,2.062,0.487,2.503
		c0.255,0.255,0.696,0.533,2.527,0.533c1.97,0,2.457-0.093,2.828-0.301c0.463-0.278,1.066-1.113,1.529-2.295
		c0.139-0.115,0.58-0.023,0.58,0.14c0,0.254-0.649,2.618-0.974,3.244c-1.182-0.046-3.384-0.069-5.771-0.069h-2.132
		c-0.974,0-1.716,0.023-3.014,0.069c-0.139-0.069-0.185-0.44-0.046-0.579l0.695-0.069c1.345-0.14,1.391-0.464,1.391-2.898V33.116z"
		/>
	<path clip-path="url(#SVGID_2_)" fill="#404040" d="M28.701,37.451c0-4.636,3.476-8.182,8.251-8.182c5.354,0,8.043,3.87,8.043,7.95
		c0,4.682-3.569,8.089-8.043,8.089C31.806,45.308,28.701,41.623,28.701,37.451 M42.677,37.937c0-3.824-1.692-7.95-6.119-7.95
		c-2.41,0-5.54,1.646-5.54,6.722c0,3.43,1.669,7.88,6.236,7.88C40.035,44.589,42.677,42.503,42.677,37.937"/>
	<path clip-path="url(#SVGID_2_)" fill="#404040" d="M48.453,32.653c0-1.715-0.093-2.156-1.136-2.248l-0.742-0.07
		c-0.185-0.139-0.162-0.487,0.024-0.579c1.251-0.116,2.827-0.186,4.983-0.186c1.46,0,2.851,0.116,3.894,0.649
		c0.996,0.487,1.761,1.414,1.761,2.897c0,1.669-0.973,2.527-2.364,3.176c0,0.232,0.186,0.301,0.44,0.347
		c1.252,0.232,3.106,1.391,3.106,3.871c0,2.689-1.993,4.497-6.165,4.497c-0.672,0-1.808-0.069-2.781-0.069
		c-1.02,0-1.808,0.046-2.666,0.069c-0.139-0.069-0.185-0.44-0.046-0.579l0.417-0.069c1.228-0.209,1.275-0.464,1.275-2.897V32.653z
		 M50.353,35.736c0,0.648,0.023,0.695,1.206,0.648c2.364-0.092,3.638-0.788,3.638-2.966c0-2.272-1.692-3.129-3.453-3.129
		c-0.51,0-0.858,0.046-1.066,0.139c-0.232,0.069-0.325,0.185-0.325,0.602V35.736z M50.353,41.113c0,0.834,0.046,2.017,0.487,2.526
		c0.44,0.533,1.136,0.648,1.831,0.648c2.063,0,3.639-0.927,3.639-3.245c0-1.831-0.927-3.963-4.612-3.963
		c-1.252,0-1.345,0.139-1.345,0.602V41.113z"/>
	<path clip-path="url(#SVGID_2_)" fill="#404040" d="M68.365,39.56c-0.162-0.51-0.255-0.58-0.95-0.58h-3.5
		c-0.579,0-0.719,0.07-0.881,0.557l-0.811,2.433c-0.347,1.043-0.51,1.669-0.51,1.924c0,0.278,0.116,0.417,0.672,0.464l0.765,0.069
		c0.163,0.116,0.163,0.487-0.046,0.579c-0.603-0.046-1.321-0.046-2.411-0.069c-0.765,0-1.599,0.046-2.225,0.069
		c-0.139-0.092-0.185-0.463-0.046-0.579l0.765-0.069c0.556-0.047,1.066-0.302,1.39-1.136c0.418-1.066,1.067-2.573,2.04-5.169
		l2.364-6.258c0.325-0.835,0.464-1.275,0.394-1.646c0.557-0.162,0.951-0.579,1.206-0.881c0.138,0,0.301,0.047,0.347,0.209
		c0.302,1.02,0.672,2.086,1.02,3.106l3.176,9.318c0.672,1.993,0.973,2.341,1.969,2.457l0.626,0.069c0.162,0.116,0.116,0.487,0,0.579
		c-0.95-0.046-1.761-0.069-2.804-0.069c-1.113,0-1.993,0.046-2.666,0.069c-0.185-0.092-0.208-0.463-0.046-0.579l0.672-0.069
		c0.487-0.047,0.811-0.186,0.811-0.418c0-0.255-0.116-0.672-0.301-1.228L68.365,39.56z M63.776,37.497
		c-0.186,0.533-0.162,0.556,0.487,0.556h2.85c0.673,0,0.719-0.093,0.511-0.719l-1.252-3.777c-0.185-0.557-0.394-1.183-0.533-1.461
		h-0.046c-0.07,0.116-0.302,0.672-0.557,1.368L63.776,37.497z"/>
	<path clip-path="url(#SVGID_2_)" fill="#404040" d="M75.762,33.116c0-2.434-0.046-2.805-1.506-2.92l-0.58-0.047
		c-0.139-0.093-0.093-0.51,0.046-0.579c1.298,0.046,2.086,0.069,3.014,0.069c0.903,0,1.692-0.023,2.85-0.069
		c0.139,0.069,0.186,0.486,0.047,0.579l-0.557,0.047c-1.367,0.115-1.414,0.486-1.414,2.92v8.066c0,1.46,0.07,2.062,0.487,2.503
		c0.255,0.255,0.696,0.533,2.527,0.533c1.97,0,2.457-0.093,2.828-0.301c0.463-0.278,1.066-1.113,1.529-2.295
		c0.139-0.115,0.58-0.023,0.58,0.14c0,0.254-0.649,2.618-0.974,3.244c-1.183-0.046-3.384-0.069-5.771-0.069h-2.132
		c-0.974,0-1.716,0.023-3.014,0.069c-0.139-0.069-0.185-0.44-0.046-0.579l0.695-0.069c1.345-0.14,1.391-0.464,1.391-2.898V33.116z"
		/>
	<path clip-path="url(#SVGID_2_)" fill="#404040" d="M105.271,42.573c0,0.927,0.139,1.483,0.557,1.646
		c0.069,0.068,0.069,0.208-0.023,0.277c-0.278,0-0.695,0.093-1.136,0.209c-1.229,0.324-2.897,0.603-4.149,0.603
		c-2.758,0-5.284-0.765-7.069-2.573c-1.391-1.391-2.132-3.222-2.132-5.261c0-1.97,0.648-3.964,2.086-5.493
		c1.553-1.623,3.848-2.712,7.348-2.712c1.321,0,2.549,0.255,2.943,0.347c0.44,0.093,1.159,0.255,1.437,0.209
		c0,0.765,0.14,1.97,0.348,3.361c-0.069,0.185-0.486,0.209-0.625,0.07c-0.649-2.504-2.388-3.292-4.752-3.292
		c-4.496,0-6.467,3.199-6.467,6.675c0,4.451,2.295,7.951,6.954,7.951c1.437,0,2.294-0.302,2.549-0.695
		c0.116-0.162,0.232-0.579,0.232-1.321v-0.927c0-1.947-0.07-2.086-1.507-2.248l-1.02-0.116c-0.186-0.093-0.163-0.51,0-0.58
		c0.672,0.047,1.946,0.07,3.314,0.07c0.903,0,1.691-0.023,2.456-0.07c0.163,0.093,0.186,0.441,0.023,0.58l-0.371,0.046
		c-0.973,0.116-0.996,0.765-0.996,1.947V42.573z"/>
	<path clip-path="url(#SVGID_2_)" fill="#404040" d="M109.956,33.14c0-2.202-0.069-2.596-1.02-2.712l-0.742-0.093
		c-0.162-0.116-0.162-0.486,0.023-0.579c1.298-0.116,2.897-0.186,5.169-0.186c1.437,0,2.805,0.116,3.87,0.696
		c1.113,0.579,1.924,1.622,1.924,3.245c0,2.201-1.738,3.407-2.897,3.87c-0.115,0.139,0,0.371,0.116,0.556
		c1.854,2.991,3.083,4.845,4.659,6.167c0.394,0.348,0.974,0.603,1.599,0.648c0.116,0.047,0.14,0.231,0.023,0.324
		c-0.208,0.07-0.579,0.116-1.02,0.116c-1.971,0-3.152-0.579-4.798-2.92c-0.603-0.858-1.553-2.458-2.271-3.5
		c-0.348-0.51-0.719-0.742-1.646-0.742c-1.043,0-1.09,0.024-1.09,0.51v2.921c0,2.434,0.047,2.712,1.391,2.897l0.487,0.069
		c0.139,0.116,0.093,0.51-0.047,0.579c-1.043-0.046-1.831-0.069-2.758-0.069c-0.974,0-1.808,0.023-2.897,0.069
		c-0.139-0.069-0.186-0.417-0.046-0.579l0.579-0.069c1.345-0.163,1.391-0.464,1.391-2.897V33.14z M111.856,36.454
		c0,0.417,0,0.672,0.069,0.765c0.07,0.069,0.418,0.116,1.6,0.116c0.835,0,1.715-0.093,2.388-0.603
		c0.626-0.486,1.158-1.298,1.158-2.874c0-1.831-1.136-3.569-3.708-3.569c-1.438,0-1.507,0.093-1.507,0.742V36.454z"/>
	<path clip-path="url(#SVGID_2_)" fill="#404040" d="M124.33,33.116c0-2.411-0.046-2.758-1.414-2.92l-0.371-0.047
		c-0.139-0.093-0.092-0.51,0.047-0.579c0.996,0.046,1.784,0.069,2.735,0.069h4.357c1.483,0,2.851,0,3.129-0.069
		c0.139,0.394,0.278,2.063,0.371,3.083c-0.093,0.138-0.464,0.185-0.58,0.046c-0.348-1.09-0.556-1.901-1.762-2.202
		c-0.486-0.116-1.229-0.139-2.248-0.139h-1.669c-0.695,0-0.695,0.046-0.695,0.927v4.636c0,0.649,0.069,0.649,0.765,0.649h1.345
		c0.974,0,1.692-0.047,1.97-0.14c0.278-0.092,0.44-0.231,0.557-0.811l0.186-0.95c0.116-0.139,0.51-0.139,0.603,0.023
		c0,0.556-0.093,1.46-0.093,2.341c0,0.834,0.093,1.715,0.093,2.225c-0.093,0.162-0.486,0.162-0.603,0.024l-0.209-0.905
		c-0.093-0.417-0.255-0.764-0.718-0.88c-0.325-0.093-0.881-0.116-1.785-0.116h-1.345c-0.695,0-0.765,0.023-0.765,0.626v3.268
		c0,1.228,0.069,2.016,0.44,2.41c0.278,0.278,0.765,0.533,2.806,0.533c1.784,0,2.456-0.093,2.966-0.348
		c0.417-0.231,1.043-1.043,1.646-2.249c0.162-0.115,0.487-0.046,0.58,0.162c-0.163,0.812-0.742,2.596-1.044,3.222
		c-2.086-0.046-4.147-0.069-6.211-0.069h-2.086c-0.997,0-1.785,0.023-3.152,0.069c-0.14-0.069-0.186-0.44-0.047-0.579l0.766-0.069
		c1.32-0.117,1.437-0.464,1.437-2.898V33.116z"/>
	<path clip-path="url(#SVGID_2_)" fill="#404040" d="M137.289,33.116c0-2.411-0.046-2.758-1.414-2.92l-0.371-0.047
		c-0.139-0.093-0.092-0.51,0.047-0.579c0.996,0.046,1.784,0.069,2.735,0.069h4.357c1.483,0,2.851,0,3.129-0.069
		c0.139,0.394,0.278,2.063,0.371,3.083c-0.093,0.138-0.464,0.185-0.58,0.046c-0.348-1.09-0.556-1.901-1.762-2.202
		c-0.486-0.116-1.229-0.139-2.248-0.139h-1.669c-0.695,0-0.695,0.046-0.695,0.927v4.636c0,0.649,0.069,0.649,0.765,0.649h1.345
		c0.974,0,1.692-0.047,1.97-0.14c0.278-0.092,0.44-0.231,0.557-0.811l0.186-0.95c0.116-0.139,0.51-0.139,0.603,0.023
		c0,0.556-0.093,1.46-0.093,2.341c0,0.834,0.093,1.715,0.093,2.225c-0.093,0.162-0.486,0.162-0.603,0.024l-0.209-0.905
		c-0.093-0.417-0.255-0.764-0.718-0.88c-0.325-0.093-0.881-0.116-1.785-0.116h-1.345c-0.695,0-0.765,0.023-0.765,0.626v3.268
		c0,1.228,0.069,2.016,0.44,2.41c0.278,0.278,0.765,0.533,2.806,0.533c1.784,0,2.457-0.093,2.966-0.348
		c0.417-0.231,1.043-1.043,1.646-2.249c0.162-0.115,0.487-0.046,0.58,0.162c-0.163,0.812-0.742,2.596-1.044,3.222
		c-2.086-0.046-4.147-0.069-6.211-0.069h-2.086c-0.997,0-1.785,0.023-3.152,0.069c-0.14-0.069-0.186-0.44-0.047-0.579l0.766-0.069
		c1.32-0.117,1.437-0.464,1.437-2.898V33.116z"/>
	<path clip-path="url(#SVGID_2_)" fill="#404040" d="M162.718,40.997c0,0.695,0,3.454,0.069,4.057
		c-0.046,0.139-0.186,0.255-0.44,0.255c-0.277-0.395-0.95-1.205-2.967-3.5l-5.377-6.12c-0.626-0.718-2.202-2.619-2.688-3.129h-0.047
		c-0.093,0.278-0.115,0.812-0.115,1.507v5.053c0,1.089,0.022,4.103,0.417,4.798c0.139,0.255,0.603,0.394,1.182,0.44l0.719,0.069
		c0.139,0.186,0.116,0.464-0.046,0.579c-1.043-0.046-1.854-0.069-2.712-0.069c-0.973,0-1.599,0.023-2.411,0.069
		c-0.162-0.115-0.186-0.44-0.046-0.579l0.626-0.069c0.533-0.07,0.903-0.209,1.02-0.464c0.324-0.834,0.302-3.663,0.302-4.774V32.42
		c0-0.649-0.023-1.135-0.511-1.669c-0.324-0.324-0.881-0.486-1.437-0.556l-0.395-0.046c-0.139-0.139-0.139-0.487,0.047-0.58
		c0.974,0.07,2.202,0.07,2.619,0.07c0.371,0,0.765-0.023,1.066-0.07c0.463,1.182,3.198,4.242,3.963,5.099l2.248,2.527
		c1.6,1.785,2.735,3.083,3.825,4.195h0.046c0.093-0.116,0.093-0.487,0.093-0.973v-4.961c0-1.089-0.023-4.102-0.464-4.797
		c-0.139-0.209-0.51-0.348-1.437-0.464l-0.395-0.046c-0.162-0.139-0.139-0.51,0.047-0.58c1.066,0.047,1.854,0.07,2.734,0.07
		c0.997,0,1.6-0.023,2.388-0.07c0.186,0.116,0.186,0.441,0.047,0.58l-0.324,0.046c-0.742,0.116-1.206,0.301-1.299,0.487
		c-0.394,0.835-0.348,3.709-0.348,4.774V40.997z"/>
	<path clip-path="url(#SVGID_2_)" fill="#404040" d="M47.886,52.554c0-0.593-0.032-0.745-0.392-0.776l-0.257-0.024
		c-0.064-0.048-0.056-0.168,0.008-0.2c0.433-0.04,0.978-0.064,1.723-0.064c0.504,0,0.985,0.04,1.346,0.225
		c0.344,0.168,0.608,0.488,0.608,1.001c0,0.576-0.336,0.874-0.817,1.098c0,0.08,0.064,0.104,0.152,0.12
		c0.433,0.08,1.074,0.48,1.074,1.338c0,0.93-0.689,1.555-2.131,1.555c-0.232,0-0.625-0.024-0.961-0.024
		c-0.353,0-0.625,0.016-0.922,0.024c-0.047-0.024-0.064-0.152-0.016-0.201l0.145-0.023c0.424-0.072,0.44-0.16,0.44-1.001V52.554z
		 M48.543,53.62c0,0.225,0.008,0.24,0.417,0.225c0.817-0.032,1.257-0.272,1.257-1.025c0-0.785-0.584-1.081-1.193-1.081
		c-0.176,0-0.296,0.016-0.369,0.048c-0.08,0.023-0.112,0.063-0.112,0.208V53.62z M48.543,55.478c0,0.289,0.016,0.697,0.168,0.874
		c0.153,0.184,0.393,0.224,0.633,0.224c0.713,0,1.258-0.32,1.258-1.121c0-0.633-0.321-1.37-1.594-1.37
		c-0.433,0-0.465,0.048-0.465,0.207V55.478z"/>
	<path clip-path="url(#SVGID_2_)" fill="#404040" d="M60.075,53.524c0-0.497-0.016-1.418-0.152-1.658
		c-0.056-0.097-0.201-0.153-0.401-0.168l-0.2-0.017c-0.048-0.056-0.032-0.16,0.016-0.192c0.304,0.017,0.601,0.024,0.913,0.024
		c0.337,0,0.553-0.008,0.841-0.024c0.065,0.04,0.056,0.145,0.016,0.192l-0.192,0.017c-0.2,0.015-0.352,0.088-0.401,0.191
		c-0.112,0.265-0.112,1.187-0.112,1.635v0.905c0,0.697-0.112,1.434-0.56,1.914c-0.345,0.377-0.938,0.585-1.531,0.585
		c-0.552,0-1.105-0.104-1.498-0.44c-0.424-0.353-0.624-0.938-0.624-1.891v-1.891c0-0.833-0.016-0.969-0.481-1.009l-0.2-0.017
		c-0.048-0.032-0.032-0.168,0.016-0.192c0.4,0.017,0.673,0.024,0.993,0.024c0.328,0,0.593-0.008,0.985-0.024
		c0.049,0.024,0.065,0.16,0.016,0.192l-0.192,0.017c-0.464,0.04-0.481,0.176-0.481,1.009v1.73c0,1.29,0.401,2.139,1.627,2.139
		c1.161,0,1.602-0.913,1.602-2.131V53.524z"/>
	<path clip-path="url(#SVGID_2_)" fill="#404040" d="M65.829,52.731c0-0.85-0.016-0.985-0.489-1.025l-0.2-0.017
		c-0.048-0.031-0.032-0.176,0.016-0.2c0.401,0.017,0.673,0.024,1.009,0.024c0.321,0,0.593-0.008,0.994-0.024
		c0.048,0.024,0.064,0.169,0.016,0.2l-0.2,0.017c-0.473,0.04-0.489,0.176-0.489,1.025v2.852c0,0.85,0.016,0.962,0.489,1.018
		l0.2,0.024c0.048,0.031,0.032,0.176-0.016,0.2c-0.401-0.017-0.673-0.024-0.994-0.024c-0.336,0-0.608,0.008-1.009,0.024
		c-0.048-0.024-0.064-0.152-0.016-0.2l0.2-0.024c0.473-0.056,0.489-0.168,0.489-1.018V52.731z"/>
	<path clip-path="url(#SVGID_2_)" fill="#404040" d="M72.138,52.714c0-0.841-0.016-0.969-0.521-1.009l-0.2-0.017
		c-0.048-0.031-0.032-0.176,0.016-0.2c0.449,0.017,0.721,0.024,1.041,0.024c0.313,0,0.585-0.008,0.986-0.024
		c0.048,0.024,0.064,0.169,0.016,0.2l-0.192,0.017c-0.473,0.04-0.489,0.168-0.489,1.009v2.788c0,0.505,0.024,0.713,0.168,0.865
		c0.088,0.088,0.24,0.185,0.873,0.185c0.681,0,0.849-0.032,0.978-0.104c0.16-0.096,0.368-0.385,0.529-0.793
		c0.047-0.04,0.2-0.008,0.2,0.048c0,0.088-0.225,0.905-0.337,1.122c-0.408-0.017-1.17-0.024-1.995-0.024h-0.737
		c-0.336,0-0.592,0.008-1.041,0.024c-0.048-0.024-0.064-0.152-0.016-0.2l0.241-0.024c0.464-0.048,0.48-0.16,0.48-1.001V52.714z"/>
	<path clip-path="url(#SVGID_2_)" fill="#404040" d="M80.168,52.554c0-0.561-0.04-0.729-0.376-0.776l-0.176-0.024
		c-0.064-0.04-0.073-0.168,0.007-0.2c0.681-0.04,1.33-0.064,2.011-0.064c0.673,0,1.242,0.049,1.763,0.24
		c1.081,0.393,1.626,1.307,1.626,2.363c0,1.018-0.488,1.891-1.401,2.388c-0.521,0.28-1.179,0.385-1.795,0.385
		c-0.512,0-1.025-0.064-1.305-0.064c-0.337,0-0.625,0.008-1.002,0.024c-0.048-0.024-0.064-0.152-0.016-0.2l0.185-0.023
		c0.464-0.065,0.48-0.161,0.48-1.002V52.554z M80.826,55.415c0,0.425,0.024,0.681,0.16,0.873c0.176,0.248,0.481,0.328,0.986,0.328
		c1.554,0,2.251-1.017,2.251-2.507c0-0.882-0.425-2.371-2.523-2.371c-0.473,0-0.729,0.063-0.794,0.111
		c-0.064,0.049-0.08,0.249-0.08,0.609V55.415z"/>
	<path clip-path="url(#SVGID_2_)" fill="#404040" d="M90.017,52.731c0-0.85-0.016-0.985-0.488-1.025l-0.2-0.017
		c-0.049-0.031-0.032-0.176,0.016-0.2c0.4,0.017,0.673,0.024,1.01,0.024c0.32,0,0.593-0.008,0.993-0.024
		c0.048,0.024,0.063,0.169,0.016,0.2l-0.2,0.017c-0.473,0.04-0.488,0.176-0.488,1.025v2.852c0,0.85,0.016,0.962,0.488,1.018
		l0.2,0.024c0.048,0.031,0.032,0.176-0.016,0.2c-0.4-0.017-0.673-0.024-0.993-0.024c-0.337,0-0.609,0.008-1.01,0.024
		c-0.048-0.024-0.064-0.152-0.016-0.2l0.2-0.024c0.473-0.056,0.488-0.168,0.488-1.018V52.731z"/>
	<path clip-path="url(#SVGID_2_)" fill="#404040" d="M100.636,55.438c0,0.241,0,1.194,0.024,1.402
		c-0.017,0.048-0.064,0.088-0.152,0.088c-0.096-0.137-0.328-0.416-1.025-1.209l-1.858-2.115c-0.218-0.248-0.761-0.905-0.93-1.081
		h-0.016c-0.032,0.096-0.04,0.28-0.04,0.521v1.746c0,0.377,0.008,1.418,0.144,1.658c0.049,0.088,0.208,0.137,0.409,0.152
		l0.248,0.024c0.048,0.063,0.04,0.16-0.016,0.2c-0.36-0.017-0.642-0.024-0.938-0.024c-0.336,0-0.553,0.008-0.833,0.024
		c-0.056-0.04-0.064-0.152-0.016-0.2l0.216-0.024c0.185-0.024,0.312-0.072,0.353-0.16c0.112-0.288,0.104-1.266,0.104-1.65v-2.315
		c0-0.225-0.009-0.393-0.177-0.576c-0.112-0.112-0.305-0.169-0.496-0.192l-0.137-0.017c-0.048-0.048-0.048-0.168,0.016-0.2
		c0.337,0.024,0.762,0.024,0.905,0.024c0.129,0,0.265-0.008,0.369-0.024c0.16,0.409,1.105,1.466,1.37,1.763l0.776,0.873
		c0.552,0.617,0.945,1.065,1.322,1.45h0.016c0.032-0.04,0.032-0.168,0.032-0.337v-1.714c0-0.377-0.008-1.418-0.16-1.658
		c-0.048-0.072-0.177-0.12-0.497-0.16l-0.136-0.017c-0.057-0.048-0.048-0.176,0.016-0.2c0.369,0.017,0.642,0.024,0.945,0.024
		c0.345,0,0.553-0.008,0.825-0.024c0.063,0.04,0.063,0.152,0.017,0.2l-0.112,0.017c-0.258,0.04-0.417,0.104-0.449,0.168
		c-0.136,0.288-0.12,1.282-0.12,1.65V55.438z"/>
	<path clip-path="url(#SVGID_2_)" fill="#404040" d="M110.364,55.983c0,0.32,0.048,0.513,0.192,0.569
		c0.023,0.023,0.023,0.072-0.009,0.096c-0.096,0-0.24,0.032-0.393,0.072c-0.424,0.112-1.001,0.208-1.434,0.208
		c-0.953,0-1.826-0.264-2.443-0.889c-0.48-0.48-0.737-1.114-0.737-1.818c0-0.682,0.225-1.37,0.722-1.899
		c0.536-0.561,1.33-0.937,2.54-0.937c0.457,0,0.88,0.088,1.017,0.12c0.152,0.032,0.4,0.088,0.496,0.072
		c0,0.264,0.049,0.681,0.12,1.161c-0.023,0.064-0.168,0.072-0.216,0.024c-0.225-0.865-0.825-1.138-1.643-1.138
		c-1.554,0-2.233,1.105-2.233,2.307c0,1.538,0.792,2.748,2.402,2.748c0.496,0,0.793-0.104,0.881-0.24
		c0.04-0.057,0.08-0.2,0.08-0.457v-0.32c0-0.673-0.024-0.721-0.521-0.777l-0.353-0.04c-0.064-0.031-0.057-0.176,0-0.2
		c0.232,0.017,0.673,0.024,1.146,0.024c0.312,0,0.585-0.008,0.849-0.024c0.058,0.032,0.064,0.152,0.009,0.2l-0.129,0.017
		c-0.336,0.04-0.344,0.265-0.344,0.673V55.983z"/>
	<path clip-path="url(#SVGID_2_)" fill="#404040" d="M116.551,56.928c-0.673,0-1.097-0.208-1.249-0.296
		c-0.097-0.177-0.2-0.745-0.217-1.122c0.04-0.056,0.16-0.072,0.192-0.023c0.12,0.408,0.449,1.193,1.378,1.193
		c0.673,0,1.002-0.44,1.002-0.921c0-0.353-0.072-0.745-0.657-1.122l-0.761-0.496c-0.401-0.265-0.865-0.722-0.865-1.378
		c0-0.762,0.593-1.378,1.634-1.378c0.248,0,0.537,0.048,0.745,0.104c0.104,0.032,0.216,0.049,0.28,0.049
		c0.072,0.191,0.145,0.641,0.145,0.977c-0.032,0.049-0.16,0.072-0.2,0.024c-0.104-0.385-0.32-0.905-1.09-0.905
		c-0.785,0-0.953,0.521-0.953,0.89c0,0.464,0.385,0.801,0.681,0.985l0.641,0.399c0.505,0.313,1.002,0.777,1.002,1.539
		C118.258,56.328,117.593,56.928,116.551,56.928"/>
	<path clip-path="url(#SVGID_2_)" fill="#805ED3" d="M50.099,21.435C56.114,9.834,68.229,1.887,82.172,1.887
		c13.944,0,26.06,7.947,32.074,19.548h2.121C110.202,8.757,97.189,0,82.172,0C67.155,0,54.144,8.757,47.979,21.435H50.099z"/>
	<path clip-path="url(#SVGID_2_)" fill="#26D5BA" d="M111.617,64.73c-6.55,9.213-17.302,15.242-29.445,15.242
		c-12.141,0-22.894-6.029-29.443-15.242h-2.291c6.804,10.309,18.485,17.129,31.734,17.129c13.25,0,24.933-6.82,31.736-17.129
		H111.617z"/>
	<rect x="39.339" y="63.235" clip-path="url(#SVGID_2_)" fill="#404040" width="85.668" height="1.744"/>
	<rect x="23.23" y="20.919" clip-path="url(#SVGID_2_)" fill="#404040" width="51.773" height="1.768"/>
	<rect x="89.344" y="20.919" clip-path="url(#SVGID_2_)" fill="#404040" width="51.771" height="1.768"/>
	<path clip-path="url(#SVGID_2_)" fill="#404040" d="M81.116,20.679c0,0-0.24-0.2-0.397-0.669c-0.024-0.076-3.571-2.015-3.435-4.346
		c0,0,0.064-0.99,1.08-1.62c0.36-0.223,0.256-0.939,0.297-1.062c0,0-0.256,0.032-0.413,0.537c0,0,0.008,0.248-0.125,0.388
		c-0.115,0.124-0.269,0.079-0.256-0.182c0.018-0.327,0.542-0.589,0.492-0.838c-0.049-0.249-0.752,0.437-0.752,0.437
		s0.284-0.591,0.604-0.752c0.284-0.145,0.232-0.24,0.346-0.297c0.043-0.021,0.085-0.021,0.199-0.05
		c0.256-0.066,0.315-0.695,1.174-0.447c0.723,0.209,0.811,1.373-0.148,1.902c-0.393,0.217-0.244,1.091-0.083,1.19
		c0.161,0.1,1.034-1.224,2.646-0.938c1.612,0.286,1.389,0.472,1.45,0.41c0.608-0.609,1.897-2.082,3.658-0.629
		c0.943,0.778,0.943,2.675-0.806,3.729l0.197,0.124c0,0-0.301,1.982-1.053,1.574c-0.595-0.321-1.104-0.904-1.253-0.942
		c0,0-0.149,0.076-0.136,0.124c0.013,0.05,0.917,0.719,0.931,0.818c0.011,0.1-0.262,0.013-0.299,0.013s0.31,0.186,0.235,0.223
		c-0.073,0.037-0.569-0.086-0.619-0.136c-0.051-0.049,0.843,0.682,0.769,0.744c-0.075,0.062-0.67-0.174-0.744-0.272
		c-0.075-0.1,0.459,0.557,0.348,0.619c-0.111,0.063-0.955-0.496-1.043-0.57c-0.087-0.075,0.249,0.472-0.087,0.694
		c-0.334,0.224-0.396,0.087-0.459,0.125c-0.061,0.036,0.199,1.092,0.237,1.102c0.037,0.014,0.309,0.014,0.322,0.101
		c0.012,0.086-0.111,0.074-0.212,0.074c-0.1,0-0.057,0.756-0.057,0.844c0,0.085,0.409,0.12,0.47,0.231
		c0.032,0.055,0.018,0.156-0.064,0.272c-0.053,0.074,0.016-0.192-0.009-0.197c-0.05-0.013-0.352-0.067-0.389-0.017
		c-0.038,0.049-0.326,0.274-0.47,0.534c-0.029,0.055-0.009-0.233,0.167-0.49c0.075-0.107-0.501,0.051-0.762,0.355
		c-0.039,0.045-0.014-0.179,0.218-0.33c0.14-0.091,0.317-0.11,0.548-0.186c0.292-0.094-0.321-1.959-0.433-2.145
		c-0.112-0.186-1.055-0.137-1.141-0.075c-0.087,0.063-0.224,0.2-0.224,0.236c0,0.038-0.173,0.708-0.173,0.807
		s0.198,0.074,0.224,0.211c0.024,0.136-0.249,0.136-0.299,0.136c-0.048,0-0.011,0.445-0.011,0.445s0.025,0.262,0.025,0.312
		c0,0.048,0.114,0.14,0.156,0.239c0.036,0.087-0.144-0.066-0.144-0.066s0.093,0.269,0.046,0.354
		c-0.042,0.075-0.031-0.288-0.175-0.271c-0.061,0.006-0.587,0.174-0.662,0.47c-0.016,0.067-0.068-0.259,0.257-0.454
		c0.123-0.074-0.537-0.016-0.769,0.264c-0.033,0.042-0.032-0.214,0.216-0.305c0.195-0.074,0.615-0.107,0.702-0.231
		C81.393,22.278,81.116,20.679,81.116,20.679"/>
</g>
</svg>
